G04 #@! TF.GenerationSoftware,KiCad,Pcbnew,(6.0.5)*
G04 #@! TF.CreationDate,2022-09-26T13:26:44+02:00*
G04 #@! TF.ProjectId,Huvud,48757675-642e-46b6-9963-61645f706362,rev?*
G04 #@! TF.SameCoordinates,PXad91980PY876bf80*
G04 #@! TF.FileFunction,Legend,Bot*
G04 #@! TF.FilePolarity,Positive*
%FSLAX46Y46*%
G04 Gerber Fmt 4.6, Leading zero omitted, Abs format (unit mm)*
G04 Created by KiCad (PCBNEW (6.0.5)) date 2022-09-26 13:26:44*
%MOMM*%
%LPD*%
G01*
G04 APERTURE LIST*
G04 #@! TA.AperFunction,Profile*
%ADD10C,0.100000*%
G04 #@! TD*
G04 #@! TA.AperFunction,Profile*
%ADD11C,0.050000*%
G04 #@! TD*
%ADD12C,0.130000*%
%ADD13C,0.150000*%
%ADD14C,0.300000*%
%ADD15C,0.200000*%
%ADD16C,0.120000*%
%ADD17C,0.010000*%
G04 APERTURE END LIST*
D10*
X42000000Y38000000D02*
X42000000Y4000000D01*
D11*
X4000000Y42000000D02*
X8000000Y42000000D01*
X17900000Y42000000D02*
X38000000Y42000000D01*
D10*
X9000000Y41000000D02*
X8000000Y42000000D01*
D11*
X4000000Y0D02*
X0Y4000000D01*
X38000000Y42000000D02*
X42000000Y38000000D01*
D10*
X17900000Y42000000D02*
X16900000Y41000000D01*
X16900000Y41000000D02*
X9000000Y41000000D01*
D11*
X0Y38000000D02*
X4000000Y42000000D01*
D10*
X0Y4000000D02*
X0Y38000000D01*
D11*
X38000000Y0D02*
X42000000Y4000000D01*
D10*
X38000000Y0D02*
X4000000Y0D01*
D12*
X6884500Y30617715D02*
X6917833Y30589143D01*
X7017833Y30560572D01*
X7084500Y30560572D01*
X7184500Y30589143D01*
X7251166Y30646286D01*
X7284500Y30703429D01*
X7317833Y30817715D01*
X7317833Y30903429D01*
X7284500Y31017715D01*
X7251166Y31074858D01*
X7184500Y31132000D01*
X7084500Y31160572D01*
X7017833Y31160572D01*
X6917833Y31132000D01*
X6884500Y31103429D01*
X6251166Y30560572D02*
X6584500Y30560572D01*
X6584500Y31160572D01*
X6017833Y30560572D02*
X6017833Y31160572D01*
X5617833Y30560572D02*
X5917833Y30903429D01*
X5617833Y31160572D02*
X6017833Y30817715D01*
X7084500Y29200000D02*
X7151166Y29228572D01*
X7251166Y29228572D01*
X7351166Y29200000D01*
X7417833Y29142858D01*
X7451166Y29085715D01*
X7484500Y28971429D01*
X7484500Y28885715D01*
X7451166Y28771429D01*
X7417833Y28714286D01*
X7351166Y28657143D01*
X7251166Y28628572D01*
X7184500Y28628572D01*
X7084500Y28657143D01*
X7051166Y28685715D01*
X7051166Y28885715D01*
X7184500Y28885715D01*
X6751166Y28628572D02*
X6751166Y29228572D01*
X6351166Y28628572D01*
X6351166Y29228572D01*
X6017833Y28628572D02*
X6017833Y29228572D01*
X5851166Y29228572D01*
X5751166Y29200000D01*
X5684500Y29142858D01*
X5651166Y29085715D01*
X5617833Y28971429D01*
X5617833Y28885715D01*
X5651166Y28771429D01*
X5684500Y28714286D01*
X5751166Y28657143D01*
X5851166Y28628572D01*
X6017833Y28628572D01*
X7051166Y27296572D02*
X6617833Y27296572D01*
X6851166Y27068000D01*
X6751166Y27068000D01*
X6684500Y27039429D01*
X6651166Y27010858D01*
X6617833Y26953715D01*
X6617833Y26810858D01*
X6651166Y26753715D01*
X6684500Y26725143D01*
X6751166Y26696572D01*
X6951166Y26696572D01*
X7017833Y26725143D01*
X7051166Y26753715D01*
X6317833Y26753715D02*
X6284500Y26725143D01*
X6317833Y26696572D01*
X6351166Y26725143D01*
X6317833Y26753715D01*
X6317833Y26696572D01*
X6051166Y27296572D02*
X5617833Y27296572D01*
X5851166Y27068000D01*
X5751166Y27068000D01*
X5684500Y27039429D01*
X5651166Y27010858D01*
X5617833Y26953715D01*
X5617833Y26810858D01*
X5651166Y26753715D01*
X5684500Y26725143D01*
X5751166Y26696572D01*
X5951166Y26696572D01*
X6017833Y26725143D01*
X6051166Y26753715D01*
X8984500Y30560572D02*
X8984500Y31160572D01*
X8517833Y31160572D02*
X8384500Y31160572D01*
X8317833Y31132000D01*
X8251166Y31074858D01*
X8217833Y30960572D01*
X8217833Y30760572D01*
X8251166Y30646286D01*
X8317833Y30589143D01*
X8384500Y30560572D01*
X8517833Y30560572D01*
X8584500Y30589143D01*
X8651166Y30646286D01*
X8684500Y30760572D01*
X8684500Y30960572D01*
X8651166Y31074858D01*
X8584500Y31132000D01*
X8517833Y31160572D01*
X9417833Y28628572D02*
X9651166Y28914286D01*
X9817833Y28628572D02*
X9817833Y29228572D01*
X9551166Y29228572D01*
X9484500Y29200000D01*
X9451166Y29171429D01*
X9417833Y29114286D01*
X9417833Y29028572D01*
X9451166Y28971429D01*
X9484500Y28942858D01*
X9551166Y28914286D01*
X9817833Y28914286D01*
X9151166Y28657143D02*
X9051166Y28628572D01*
X8884500Y28628572D01*
X8817833Y28657143D01*
X8784500Y28685715D01*
X8751166Y28742858D01*
X8751166Y28800000D01*
X8784500Y28857143D01*
X8817833Y28885715D01*
X8884500Y28914286D01*
X9017833Y28942858D01*
X9084500Y28971429D01*
X9117833Y29000000D01*
X9151166Y29057143D01*
X9151166Y29114286D01*
X9117833Y29171429D01*
X9084500Y29200000D01*
X9017833Y29228572D01*
X8851166Y29228572D01*
X8751166Y29200000D01*
X8551166Y29228572D02*
X8151166Y29228572D01*
X8351166Y28628572D02*
X8351166Y29228572D01*
X9051166Y27010858D02*
X8951166Y26982286D01*
X8917833Y26953715D01*
X8884500Y26896572D01*
X8884500Y26810858D01*
X8917833Y26753715D01*
X8951166Y26725143D01*
X9017833Y26696572D01*
X9284500Y26696572D01*
X9284500Y27296572D01*
X9051166Y27296572D01*
X8984500Y27268000D01*
X8951166Y27239429D01*
X8917833Y27182286D01*
X8917833Y27125143D01*
X8951166Y27068000D01*
X8984500Y27039429D01*
X9051166Y27010858D01*
X9284500Y27010858D01*
X8217833Y26696572D02*
X8617833Y26696572D01*
X8417833Y26696572D02*
X8417833Y27296572D01*
X8484500Y27210858D01*
X8551166Y27153715D01*
X8617833Y27125143D01*
D13*
X3461904Y19552381D02*
X3461904Y19933334D01*
X3842857Y19971429D01*
X3804761Y19933334D01*
X3766666Y19857143D01*
X3766666Y19666667D01*
X3804761Y19590477D01*
X3842857Y19552381D01*
X3919047Y19514286D01*
X4109523Y19514286D01*
X4185714Y19552381D01*
X4223809Y19590477D01*
X4261904Y19666667D01*
X4261904Y19857143D01*
X4223809Y19933334D01*
X4185714Y19971429D01*
X3461904Y19285715D02*
X4261904Y19019048D01*
X3461904Y18752381D01*
X2896119Y22126620D02*
X2277071Y22126620D01*
X2610404Y21745667D01*
X2467547Y21745667D01*
X2372309Y21698048D01*
X2324690Y21650429D01*
X2277071Y21555191D01*
X2277071Y21317096D01*
X2324690Y21221858D01*
X2372309Y21174239D01*
X2467547Y21126620D01*
X2753261Y21126620D01*
X2848500Y21174239D01*
X2896119Y21221858D01*
X1848500Y21221858D02*
X1800880Y21174239D01*
X1848500Y21126620D01*
X1896119Y21174239D01*
X1848500Y21221858D01*
X1848500Y21126620D01*
X1467547Y22126620D02*
X848500Y22126620D01*
X1181833Y21745667D01*
X1038976Y21745667D01*
X943738Y21698048D01*
X896119Y21650429D01*
X848500Y21555191D01*
X848500Y21317096D01*
X896119Y21221858D01*
X943738Y21174239D01*
X1038976Y21126620D01*
X1324690Y21126620D01*
X1419928Y21174239D01*
X1467547Y21221858D01*
X4223809Y12209524D02*
X4261904Y12095239D01*
X4261904Y11904762D01*
X4223809Y11828572D01*
X4185714Y11790477D01*
X4109523Y11752381D01*
X4033333Y11752381D01*
X3957142Y11790477D01*
X3919047Y11828572D01*
X3880952Y11904762D01*
X3842857Y12057143D01*
X3804761Y12133334D01*
X3766666Y12171429D01*
X3690476Y12209524D01*
X3614285Y12209524D01*
X3538095Y12171429D01*
X3500000Y12133334D01*
X3461904Y12057143D01*
X3461904Y11866667D01*
X3500000Y11752381D01*
X4261904Y10990477D02*
X4261904Y11447620D01*
X4261904Y11219048D02*
X3461904Y11219048D01*
X3576190Y11295239D01*
X3652380Y11371429D01*
X3690476Y11447620D01*
X24500000Y30961905D02*
X24452380Y31057143D01*
X24452380Y31200000D01*
X24500000Y31342858D01*
X24595238Y31438096D01*
X24690476Y31485715D01*
X24880952Y31533334D01*
X25023809Y31533334D01*
X25214285Y31485715D01*
X25309523Y31438096D01*
X25404761Y31342858D01*
X25452380Y31200000D01*
X25452380Y31104762D01*
X25404761Y30961905D01*
X25357142Y30914286D01*
X25023809Y30914286D01*
X25023809Y31104762D01*
X25452380Y30485715D02*
X24452380Y30485715D01*
X25452380Y29914286D01*
X24452380Y29914286D01*
X25452380Y29438096D02*
X24452380Y29438096D01*
X24452380Y29200000D01*
X24500000Y29057143D01*
X24595238Y28961905D01*
X24690476Y28914286D01*
X24880952Y28866667D01*
X25023809Y28866667D01*
X25214285Y28914286D01*
X25309523Y28961905D01*
X25404761Y29057143D01*
X25452380Y29200000D01*
X25452380Y29438096D01*
D12*
X25198833Y40377572D02*
X25198833Y39891858D01*
X25165500Y39834715D01*
X25132166Y39806143D01*
X25065500Y39777572D01*
X24932166Y39777572D01*
X24865500Y39806143D01*
X24832166Y39834715D01*
X24798833Y39891858D01*
X24798833Y40377572D01*
X24498833Y39806143D02*
X24398833Y39777572D01*
X24232166Y39777572D01*
X24165500Y39806143D01*
X24132166Y39834715D01*
X24098833Y39891858D01*
X24098833Y39949000D01*
X24132166Y40006143D01*
X24165500Y40034715D01*
X24232166Y40063286D01*
X24365500Y40091858D01*
X24432166Y40120429D01*
X24465500Y40149000D01*
X24498833Y40206143D01*
X24498833Y40263286D01*
X24465500Y40320429D01*
X24432166Y40349000D01*
X24365500Y40377572D01*
X24198833Y40377572D01*
X24098833Y40349000D01*
X23565500Y40091858D02*
X23465500Y40063286D01*
X23432166Y40034715D01*
X23398833Y39977572D01*
X23398833Y39891858D01*
X23432166Y39834715D01*
X23465500Y39806143D01*
X23532166Y39777572D01*
X23798833Y39777572D01*
X23798833Y40377572D01*
X23565500Y40377572D01*
X23498833Y40349000D01*
X23465500Y40320429D01*
X23432166Y40263286D01*
X23432166Y40206143D01*
X23465500Y40149000D01*
X23498833Y40120429D01*
X23565500Y40091858D01*
X23798833Y40091858D01*
X24798833Y36936715D02*
X24832166Y36908143D01*
X24932166Y36879572D01*
X24998833Y36879572D01*
X25098833Y36908143D01*
X25165500Y36965286D01*
X25198833Y37022429D01*
X25232166Y37136715D01*
X25232166Y37222429D01*
X25198833Y37336715D01*
X25165500Y37393858D01*
X25098833Y37451000D01*
X24998833Y37479572D01*
X24932166Y37479572D01*
X24832166Y37451000D01*
X24798833Y37422429D01*
X24532166Y37051000D02*
X24198833Y37051000D01*
X24598833Y36879572D02*
X24365500Y37479572D01*
X24132166Y36879572D01*
X23898833Y36879572D02*
X23898833Y37479572D01*
X23498833Y36879572D01*
X23498833Y37479572D01*
D14*
X39421428Y25307143D02*
X39421428Y24335715D01*
X39478571Y24221429D01*
X39535714Y24164286D01*
X39650000Y24107143D01*
X39821428Y24107143D01*
X39935714Y24164286D01*
X39421428Y24564286D02*
X39535714Y24507143D01*
X39764285Y24507143D01*
X39878571Y24564286D01*
X39935714Y24621429D01*
X39992857Y24735715D01*
X39992857Y25078572D01*
X39935714Y25192858D01*
X39878571Y25250000D01*
X39764285Y25307143D01*
X39535714Y25307143D01*
X39421428Y25250000D01*
X38850000Y24507143D02*
X38850000Y25307143D01*
X38850000Y25707143D02*
X38907142Y25650000D01*
X38850000Y25592858D01*
X38792857Y25650000D01*
X38850000Y25707143D01*
X38850000Y25592858D01*
X38450000Y25307143D02*
X37992857Y25307143D01*
X38278571Y25707143D02*
X38278571Y24678572D01*
X38221428Y24564286D01*
X38107142Y24507143D01*
X37992857Y24507143D01*
X37592857Y24507143D02*
X37592857Y25707143D01*
X37078571Y24507143D02*
X37078571Y25135715D01*
X37135714Y25250000D01*
X37250000Y25307143D01*
X37421428Y25307143D01*
X37535714Y25250000D01*
X37592857Y25192858D01*
X35992857Y25307143D02*
X35992857Y24507143D01*
X36507142Y25307143D02*
X36507142Y24678572D01*
X36450000Y24564286D01*
X36335714Y24507143D01*
X36164285Y24507143D01*
X36050000Y24564286D01*
X35992857Y24621429D01*
X35421428Y24507143D02*
X35421428Y25707143D01*
X35421428Y25250000D02*
X35307142Y25307143D01*
X35078571Y25307143D01*
X34964285Y25250000D01*
X34907142Y25192858D01*
X34850000Y25078572D01*
X34850000Y24735715D01*
X34907142Y24621429D01*
X34964285Y24564286D01*
X35078571Y24507143D01*
X35307142Y24507143D01*
X35421428Y24564286D01*
X34335714Y24621429D02*
X34278571Y24564286D01*
X34335714Y24507143D01*
X34392857Y24564286D01*
X34335714Y24621429D01*
X34335714Y24507143D01*
X33250000Y24564286D02*
X33364285Y24507143D01*
X33592857Y24507143D01*
X33707142Y24564286D01*
X33764285Y24621429D01*
X33821428Y24735715D01*
X33821428Y25078572D01*
X33764285Y25192858D01*
X33707142Y25250000D01*
X33592857Y25307143D01*
X33364285Y25307143D01*
X33250000Y25250000D01*
X32564285Y24507143D02*
X32678571Y24564286D01*
X32735714Y24621429D01*
X32792857Y24735715D01*
X32792857Y25078572D01*
X32735714Y25192858D01*
X32678571Y25250000D01*
X32564285Y25307143D01*
X32392857Y25307143D01*
X32278571Y25250000D01*
X32221428Y25192858D01*
X32164285Y25078572D01*
X32164285Y24735715D01*
X32221428Y24621429D01*
X32278571Y24564286D01*
X32392857Y24507143D01*
X32564285Y24507143D01*
X31650000Y24507143D02*
X31650000Y25307143D01*
X31650000Y25192858D02*
X31592857Y25250000D01*
X31478571Y25307143D01*
X31307142Y25307143D01*
X31192857Y25250000D01*
X31135714Y25135715D01*
X31135714Y24507143D01*
X31135714Y25135715D02*
X31078571Y25250000D01*
X30964285Y25307143D01*
X30792857Y25307143D01*
X30678571Y25250000D01*
X30621428Y25135715D01*
X30621428Y24507143D01*
X29192857Y25764286D02*
X30221428Y24221429D01*
X28792857Y24507143D02*
X28792857Y25707143D01*
X28792857Y25250000D02*
X28678571Y25307143D01*
X28450000Y25307143D01*
X28335714Y25250000D01*
X28278571Y25192858D01*
X28221428Y25078572D01*
X28221428Y24735715D01*
X28278571Y24621429D01*
X28335714Y24564286D01*
X28450000Y24507143D01*
X28678571Y24507143D01*
X28792857Y24564286D01*
X27535714Y24507143D02*
X27650000Y24564286D01*
X27707142Y24621429D01*
X27764285Y24735715D01*
X27764285Y25078572D01*
X27707142Y25192858D01*
X27650000Y25250000D01*
X27535714Y25307143D01*
X27364285Y25307143D01*
X27250000Y25250000D01*
X27192857Y25192858D01*
X27135714Y25078572D01*
X27135714Y24735715D01*
X27192857Y24621429D01*
X27250000Y24564286D01*
X27364285Y24507143D01*
X27535714Y24507143D01*
X26621428Y25307143D02*
X26621428Y24507143D01*
X26621428Y25192858D02*
X26564285Y25250000D01*
X26450000Y25307143D01*
X26278571Y25307143D01*
X26164285Y25250000D01*
X26107142Y25135715D01*
X26107142Y24507143D01*
X25021428Y24507143D02*
X25021428Y25707143D01*
X25021428Y24564286D02*
X25135714Y24507143D01*
X25364285Y24507143D01*
X25478571Y24564286D01*
X25535714Y24621429D01*
X25592857Y24735715D01*
X25592857Y25078572D01*
X25535714Y25192858D01*
X25478571Y25250000D01*
X25364285Y25307143D01*
X25135714Y25307143D01*
X25021428Y25250000D01*
X23935714Y25307143D02*
X23935714Y24507143D01*
X24450000Y25307143D02*
X24450000Y24678572D01*
X24392857Y24564286D01*
X24278571Y24507143D01*
X24107142Y24507143D01*
X23992857Y24564286D01*
X23935714Y24621429D01*
X23421428Y24564286D02*
X23307142Y24507143D01*
X23078571Y24507143D01*
X22964285Y24564286D01*
X22907142Y24678572D01*
X22907142Y24735715D01*
X22964285Y24850000D01*
X23078571Y24907143D01*
X23250000Y24907143D01*
X23364285Y24964286D01*
X23421428Y25078572D01*
X23421428Y25135715D01*
X23364285Y25250000D01*
X23250000Y25307143D01*
X23078571Y25307143D01*
X22964285Y25250000D01*
X21535714Y25764286D02*
X22564285Y24221429D01*
X21135714Y24507143D02*
X21135714Y25707143D01*
X20450000Y24507143D02*
X20964285Y25192858D01*
X20450000Y25707143D02*
X21135714Y25021429D01*
X19764285Y24507143D02*
X19878571Y24564286D01*
X19935714Y24678572D01*
X19935714Y25707143D01*
X19307142Y24507143D02*
X19307142Y25307143D01*
X19307142Y25707143D02*
X19364285Y25650000D01*
X19307142Y25592858D01*
X19250000Y25650000D01*
X19307142Y25707143D01*
X19307142Y25592858D01*
X18735714Y25307143D02*
X18735714Y24107143D01*
X18735714Y25250000D02*
X18621428Y25307143D01*
X18392857Y25307143D01*
X18278571Y25250000D01*
X18221428Y25192858D01*
X18164285Y25078572D01*
X18164285Y24735715D01*
X18221428Y24621429D01*
X18278571Y24564286D01*
X18392857Y24507143D01*
X18621428Y24507143D01*
X18735714Y24564286D01*
X17650000Y25307143D02*
X17650000Y24107143D01*
X17650000Y25250000D02*
X17535714Y25307143D01*
X17307142Y25307143D01*
X17192857Y25250000D01*
X17135714Y25192858D01*
X17078571Y25078572D01*
X17078571Y24735715D01*
X17135714Y24621429D01*
X17192857Y24564286D01*
X17307142Y24507143D01*
X17535714Y24507143D01*
X17650000Y24564286D01*
X16107142Y24564286D02*
X16221428Y24507143D01*
X16450000Y24507143D01*
X16564285Y24564286D01*
X16621428Y24678572D01*
X16621428Y25135715D01*
X16564285Y25250000D01*
X16450000Y25307143D01*
X16221428Y25307143D01*
X16107142Y25250000D01*
X16050000Y25135715D01*
X16050000Y25021429D01*
X16621428Y24907143D01*
X15535714Y24507143D02*
X15535714Y25307143D01*
X15535714Y25078572D02*
X15478571Y25192858D01*
X15421428Y25250000D01*
X15307142Y25307143D01*
X15192857Y25307143D01*
X14964285Y25707143D02*
X14278571Y25707143D01*
X14621428Y24507143D02*
X14621428Y25707143D01*
X13707142Y24507143D02*
X13821428Y24564286D01*
X13878571Y24621429D01*
X13935714Y24735715D01*
X13935714Y25078572D01*
X13878571Y25192858D01*
X13821428Y25250000D01*
X13707142Y25307143D01*
X13535714Y25307143D01*
X13421428Y25250000D01*
X13364285Y25192858D01*
X13307142Y25078572D01*
X13307142Y24735715D01*
X13364285Y24621429D01*
X13421428Y24564286D01*
X13535714Y24507143D01*
X13707142Y24507143D01*
X12621428Y24507143D02*
X12735714Y24564286D01*
X12792857Y24621429D01*
X12850000Y24735715D01*
X12850000Y25078572D01*
X12792857Y25192858D01*
X12735714Y25250000D01*
X12621428Y25307143D01*
X12450000Y25307143D01*
X12335714Y25250000D01*
X12278571Y25192858D01*
X12221428Y25078572D01*
X12221428Y24735715D01*
X12278571Y24621429D01*
X12335714Y24564286D01*
X12450000Y24507143D01*
X12621428Y24507143D01*
X11535714Y24507143D02*
X11650000Y24564286D01*
X11707142Y24678572D01*
X11707142Y25707143D01*
X11078571Y24507143D02*
X11078571Y25707143D01*
X11078571Y25250000D02*
X10964285Y25307143D01*
X10735714Y25307143D01*
X10621428Y25250000D01*
X10564285Y25192858D01*
X10507142Y25078572D01*
X10507142Y24735715D01*
X10564285Y24621429D01*
X10621428Y24564286D01*
X10735714Y24507143D01*
X10964285Y24507143D01*
X11078571Y24564286D01*
X9821428Y24507143D02*
X9935714Y24564286D01*
X9992857Y24621429D01*
X10050000Y24735715D01*
X10050000Y25078572D01*
X9992857Y25192858D01*
X9935714Y25250000D01*
X9821428Y25307143D01*
X9650000Y25307143D01*
X9535714Y25250000D01*
X9478571Y25192858D01*
X9421428Y25078572D01*
X9421428Y24735715D01*
X9478571Y24621429D01*
X9535714Y24564286D01*
X9650000Y24507143D01*
X9821428Y24507143D01*
X8392857Y24507143D02*
X8392857Y25135715D01*
X8450000Y25250000D01*
X8564285Y25307143D01*
X8792857Y25307143D01*
X8907142Y25250000D01*
X8392857Y24564286D02*
X8507142Y24507143D01*
X8792857Y24507143D01*
X8907142Y24564286D01*
X8964285Y24678572D01*
X8964285Y24792858D01*
X8907142Y24907143D01*
X8792857Y24964286D01*
X8507142Y24964286D01*
X8392857Y25021429D01*
X7821428Y24507143D02*
X7821428Y25307143D01*
X7821428Y25078572D02*
X7764285Y25192858D01*
X7707142Y25250000D01*
X7592857Y25307143D01*
X7478571Y25307143D01*
X6564285Y24507143D02*
X6564285Y25707143D01*
X6564285Y24564286D02*
X6678571Y24507143D01*
X6907142Y24507143D01*
X7021428Y24564286D01*
X7078571Y24621429D01*
X7135714Y24735715D01*
X7135714Y25078572D01*
X7078571Y25192858D01*
X7021428Y25250000D01*
X6907142Y25307143D01*
X6678571Y25307143D01*
X6564285Y25250000D01*
D13*
X3500000Y17190477D02*
X3461904Y17266667D01*
X3461904Y17380953D01*
X3500000Y17495239D01*
X3576190Y17571429D01*
X3652380Y17609524D01*
X3804761Y17647620D01*
X3919047Y17647620D01*
X4071428Y17609524D01*
X4147619Y17571429D01*
X4223809Y17495239D01*
X4261904Y17380953D01*
X4261904Y17304762D01*
X4223809Y17190477D01*
X4185714Y17152381D01*
X3919047Y17152381D01*
X3919047Y17304762D01*
X30602380Y31295239D02*
X31602380Y30961905D01*
X30602380Y30628572D01*
X31602380Y30295239D02*
X30602380Y30295239D01*
X31602380Y29819048D02*
X30602380Y29819048D01*
X31602380Y29247620D01*
X30602380Y29247620D01*
D15*
X18400000Y5933334D02*
X18352380Y6028572D01*
X18352380Y6171429D01*
X18400000Y6314286D01*
X18495238Y6409524D01*
X18590476Y6457143D01*
X18780952Y6504762D01*
X18923809Y6504762D01*
X19114285Y6457143D01*
X19209523Y6409524D01*
X19304761Y6314286D01*
X19352380Y6171429D01*
X19352380Y6076191D01*
X19304761Y5933334D01*
X19257142Y5885715D01*
X18923809Y5885715D01*
X18923809Y6076191D01*
X19352380Y5457143D02*
X18352380Y5457143D01*
X19352380Y4885715D01*
X18352380Y4885715D01*
X19352380Y4409524D02*
X18352380Y4409524D01*
X18352380Y4171429D01*
X18400000Y4028572D01*
X18495238Y3933334D01*
X18590476Y3885715D01*
X18780952Y3838096D01*
X18923809Y3838096D01*
X19114285Y3885715D01*
X19209523Y3933334D01*
X19304761Y4028572D01*
X19352380Y4171429D01*
X19352380Y4409524D01*
X18352380Y2790477D02*
X19352380Y2457143D01*
X18352380Y2123810D01*
X19352380Y1790477D02*
X18352380Y1790477D01*
X19352380Y1314286D02*
X18352380Y1314286D01*
X19352380Y742858D01*
X18352380Y742858D01*
D13*
X14614166Y7047620D02*
X14042738Y7047620D01*
X14328452Y6047620D02*
X14328452Y7047620D01*
X13709404Y6047620D02*
X13709404Y7047620D01*
X13709404Y6571429D02*
X13137976Y6571429D01*
X13137976Y6047620D02*
X13137976Y7047620D01*
X12709404Y6952381D02*
X12661785Y7000000D01*
X12566547Y7047620D01*
X12328452Y7047620D01*
X12233214Y7000000D01*
X12185595Y6952381D01*
X12137976Y6857143D01*
X12137976Y6761905D01*
X12185595Y6619048D01*
X12757023Y6047620D01*
X12137976Y6047620D01*
X14061904Y3000000D02*
X14157142Y3047620D01*
X14300000Y3047620D01*
X14442857Y3000000D01*
X14538095Y2904762D01*
X14585714Y2809524D01*
X14633333Y2619048D01*
X14633333Y2476191D01*
X14585714Y2285715D01*
X14538095Y2190477D01*
X14442857Y2095239D01*
X14300000Y2047620D01*
X14204761Y2047620D01*
X14061904Y2095239D01*
X14014285Y2142858D01*
X14014285Y2476191D01*
X14204761Y2476191D01*
X13585714Y2047620D02*
X13585714Y3047620D01*
X13014285Y2047620D01*
X13014285Y3047620D01*
X12538095Y2047620D02*
X12538095Y3047620D01*
X12300000Y3047620D01*
X12157142Y3000000D01*
X12061904Y2904762D01*
X12014285Y2809524D01*
X11966666Y2619048D01*
X11966666Y2476191D01*
X12014285Y2285715D01*
X12061904Y2190477D01*
X12157142Y2095239D01*
X12300000Y2047620D01*
X12538095Y2047620D01*
X4793261Y21650429D02*
X4650404Y21602810D01*
X4602785Y21555191D01*
X4555166Y21459953D01*
X4555166Y21317096D01*
X4602785Y21221858D01*
X4650404Y21174239D01*
X4745642Y21126620D01*
X5126595Y21126620D01*
X5126595Y22126620D01*
X4793261Y22126620D01*
X4698023Y22079000D01*
X4650404Y22031381D01*
X4602785Y21936143D01*
X4602785Y21840905D01*
X4650404Y21745667D01*
X4698023Y21698048D01*
X4793261Y21650429D01*
X5126595Y21650429D01*
X3936119Y22126620D02*
X3840880Y22126620D01*
X3745642Y22079000D01*
X3698023Y22031381D01*
X3650404Y21936143D01*
X3602785Y21745667D01*
X3602785Y21507572D01*
X3650404Y21317096D01*
X3698023Y21221858D01*
X3745642Y21174239D01*
X3840880Y21126620D01*
X3936119Y21126620D01*
X4031357Y21174239D01*
X4078976Y21221858D01*
X4126595Y21317096D01*
X4174214Y21507572D01*
X4174214Y21745667D01*
X4126595Y21936143D01*
X4078976Y22031381D01*
X4031357Y22079000D01*
X3936119Y22126620D01*
X14614166Y4997620D02*
X14042738Y4997620D01*
X14328452Y3997620D02*
X14328452Y4997620D01*
X13709404Y3997620D02*
X13709404Y4997620D01*
X13709404Y4521429D02*
X13137976Y4521429D01*
X13137976Y3997620D02*
X13137976Y4997620D01*
X12137976Y3997620D02*
X12709404Y3997620D01*
X12423690Y3997620D02*
X12423690Y4997620D01*
X12518928Y4854762D01*
X12614166Y4759524D01*
X12709404Y4711905D01*
X4173809Y16109524D02*
X4211904Y15995239D01*
X4211904Y15804762D01*
X4173809Y15728572D01*
X4135714Y15690477D01*
X4059523Y15652381D01*
X3983333Y15652381D01*
X3907142Y15690477D01*
X3869047Y15728572D01*
X3830952Y15804762D01*
X3792857Y15957143D01*
X3754761Y16033334D01*
X3716666Y16071429D01*
X3640476Y16109524D01*
X3564285Y16109524D01*
X3488095Y16071429D01*
X3450000Y16033334D01*
X3411904Y15957143D01*
X3411904Y15766667D01*
X3450000Y15652381D01*
X3411904Y15385715D02*
X3411904Y14890477D01*
X3716666Y15157143D01*
X3716666Y15042858D01*
X3754761Y14966667D01*
X3792857Y14928572D01*
X3869047Y14890477D01*
X4059523Y14890477D01*
X4135714Y14928572D01*
X4173809Y14966667D01*
X4211904Y15042858D01*
X4211904Y15271429D01*
X4173809Y15347620D01*
X4135714Y15385715D01*
X25402380Y33190477D02*
X25402380Y33666667D01*
X24402380Y33666667D01*
X31602380Y33785715D02*
X30602380Y33785715D01*
X31078571Y33785715D02*
X31078571Y33214286D01*
X31602380Y33214286D02*
X30602380Y33214286D01*
X4173809Y14159524D02*
X4211904Y14045239D01*
X4211904Y13854762D01*
X4173809Y13778572D01*
X4135714Y13740477D01*
X4059523Y13702381D01*
X3983333Y13702381D01*
X3907142Y13740477D01*
X3869047Y13778572D01*
X3830952Y13854762D01*
X3792857Y14007143D01*
X3754761Y14083334D01*
X3716666Y14121429D01*
X3640476Y14159524D01*
X3564285Y14159524D01*
X3488095Y14121429D01*
X3450000Y14083334D01*
X3411904Y14007143D01*
X3411904Y13816667D01*
X3450000Y13702381D01*
X3488095Y13397620D02*
X3450000Y13359524D01*
X3411904Y13283334D01*
X3411904Y13092858D01*
X3450000Y13016667D01*
X3488095Y12978572D01*
X3564285Y12940477D01*
X3640476Y12940477D01*
X3754761Y12978572D01*
X4211904Y13435715D01*
X4211904Y12940477D01*
D16*
X5088500Y23484000D02*
G75*
G03*
X5088500Y23484000I-700000J0D01*
G01*
X2548500Y23484000D02*
G75*
G03*
X2548500Y23484000I-700000J0D01*
G01*
X21200000Y2500000D02*
G75*
G03*
X21200000Y2500000I-700000J0D01*
G01*
X21200000Y4840000D02*
G75*
G03*
X21200000Y4840000I-700000J0D01*
G01*
G36*
X16137275Y31581069D02*
G01*
X16221095Y31136445D01*
X16839667Y30881449D01*
X17210707Y31133754D01*
X17284144Y31183494D01*
X17381499Y31248782D01*
X17465787Y31304546D01*
X17532631Y31347922D01*
X17577654Y31376047D01*
X17596478Y31386058D01*
X17608039Y31378939D01*
X17642596Y31349106D01*
X17694894Y31300148D01*
X17760500Y31236560D01*
X17834983Y31162837D01*
X17913913Y31083475D01*
X17992856Y31002969D01*
X18067384Y30925815D01*
X18133063Y30856507D01*
X18185463Y30799543D01*
X18220153Y30759416D01*
X18232701Y30740623D01*
X18229782Y30732549D01*
X18209571Y30696531D01*
X18172663Y30637256D01*
X18122050Y30559370D01*
X18060725Y30467519D01*
X17991679Y30366350D01*
X17953787Y30311174D01*
X17888606Y30215116D01*
X17832723Y30131283D01*
X17789117Y30064223D01*
X17760769Y30018481D01*
X17750657Y29998604D01*
X17750823Y29997503D01*
X17759743Y29972306D01*
X17780206Y29920853D01*
X17809360Y29849865D01*
X17844353Y29766065D01*
X17882332Y29676172D01*
X17920445Y29586909D01*
X17955839Y29504997D01*
X17985662Y29437157D01*
X18007061Y29390110D01*
X18017184Y29370578D01*
X18023174Y29368845D01*
X18059566Y29361031D01*
X18124427Y29348085D01*
X18212565Y29331021D01*
X18318787Y29310849D01*
X18437902Y29288582D01*
X18500683Y29276777D01*
X18615912Y29254252D01*
X18716662Y29233450D01*
X18797426Y29215565D01*
X18852698Y29201792D01*
X18876971Y29193326D01*
X18881331Y29184934D01*
X18888563Y29143928D01*
X18894246Y29075632D01*
X18898382Y28986471D01*
X18900977Y28882872D01*
X18902036Y28771260D01*
X18901561Y28658062D01*
X18899559Y28549704D01*
X18896033Y28452611D01*
X18890987Y28373210D01*
X18884427Y28317928D01*
X18876356Y28293190D01*
X18871458Y28290400D01*
X18834930Y28278431D01*
X18771565Y28262595D01*
X18688686Y28244626D01*
X18593618Y28226259D01*
X18561542Y28220409D01*
X18413393Y28193202D01*
X18296961Y28171337D01*
X18208209Y28153907D01*
X18143103Y28140004D01*
X18097606Y28128723D01*
X18067682Y28119157D01*
X18049294Y28110399D01*
X18038407Y28101543D01*
X18037142Y28100057D01*
X18019338Y28069069D01*
X17992994Y28012366D01*
X17960661Y27936601D01*
X17924893Y27848426D01*
X17888244Y27754493D01*
X17853266Y27661453D01*
X17822513Y27575959D01*
X17798538Y27504664D01*
X17783895Y27454218D01*
X17781136Y27431274D01*
X17782981Y27428297D01*
X17802075Y27399507D01*
X17837984Y27346405D01*
X17887378Y27273883D01*
X17946927Y27186833D01*
X18013303Y27090146D01*
X18031520Y27063544D01*
X18095577Y26968125D01*
X18150937Y26882788D01*
X18194439Y26812595D01*
X18222924Y26762606D01*
X18233232Y26737884D01*
X18231011Y26731384D01*
X18207858Y26699356D01*
X18162177Y26647055D01*
X18097241Y26578001D01*
X18016319Y26495714D01*
X17922685Y26403714D01*
X17869165Y26352219D01*
X17784542Y26272017D01*
X17710475Y26203322D01*
X17650941Y26149748D01*
X17609917Y26114915D01*
X17591381Y26102437D01*
X17578646Y26107062D01*
X17539436Y26128943D01*
X17482495Y26164727D01*
X17415250Y26209883D01*
X17367438Y26242835D01*
X17271985Y26308273D01*
X17170125Y26377772D01*
X17077088Y26440925D01*
X16894832Y26564200D01*
X16741841Y26481480D01*
X16705817Y26462387D01*
X16640303Y26429728D01*
X16589640Y26407181D01*
X16562564Y26398774D01*
X16553703Y26409570D01*
X16531699Y26450677D01*
X16499199Y26518451D01*
X16458010Y26608591D01*
X16409942Y26716795D01*
X16356802Y26838763D01*
X16300399Y26970192D01*
X16242542Y27106782D01*
X16185038Y27244233D01*
X16129697Y27378242D01*
X16078326Y27504509D01*
X16032735Y27618732D01*
X15994732Y27716610D01*
X15966124Y27793843D01*
X15948721Y27846129D01*
X15944331Y27869167D01*
X15944628Y27869840D01*
X15965077Y27891137D01*
X16007850Y27924492D01*
X16064117Y27962989D01*
X16081877Y27974744D01*
X16217014Y28086265D01*
X16328856Y28219094D01*
X16414755Y28367702D01*
X16472062Y28526560D01*
X16498131Y28690140D01*
X16490313Y28852912D01*
X16458644Y28997685D01*
X16401782Y29143876D01*
X16318888Y29274297D01*
X16205131Y29398187D01*
X16160433Y29437765D01*
X16015935Y29535277D01*
X15859838Y29600950D01*
X15696667Y29635370D01*
X15530943Y29639126D01*
X15367192Y29612806D01*
X15209936Y29556997D01*
X15063698Y29472286D01*
X14933004Y29359263D01*
X14822374Y29218513D01*
X14801105Y29183658D01*
X14728810Y29024345D01*
X14690415Y28858448D01*
X14684914Y28690263D01*
X14711301Y28524087D01*
X14768570Y28364216D01*
X14855717Y28214947D01*
X14971736Y28080577D01*
X15115622Y27965401D01*
X15120294Y27962298D01*
X15175964Y27923067D01*
X15217689Y27889714D01*
X15236746Y27869167D01*
X15234342Y27853059D01*
X15219391Y27806156D01*
X15192881Y27733461D01*
X15156620Y27639275D01*
X15112416Y27527902D01*
X15062076Y27403642D01*
X15007407Y27270798D01*
X14950218Y27133673D01*
X14892316Y26996568D01*
X14835510Y26863785D01*
X14781606Y26739626D01*
X14732412Y26628394D01*
X14689737Y26534391D01*
X14655387Y26461918D01*
X14631171Y26415278D01*
X14618897Y26398774D01*
X14608689Y26401009D01*
X14568586Y26417074D01*
X14509318Y26445241D01*
X14439619Y26481480D01*
X14286629Y26564200D01*
X14104373Y26440925D01*
X14050527Y26404421D01*
X13950374Y26336216D01*
X13850525Y26267902D01*
X13766211Y26209883D01*
X13719679Y26178264D01*
X13659200Y26138980D01*
X13614357Y26112088D01*
X13592455Y26102117D01*
X13583045Y26106350D01*
X13549031Y26132279D01*
X13496595Y26177930D01*
X13430301Y26238814D01*
X13354713Y26310439D01*
X13274396Y26388317D01*
X13193913Y26467955D01*
X13117829Y26544865D01*
X13050707Y26614555D01*
X12997112Y26672536D01*
X12961608Y26714316D01*
X12948759Y26735407D01*
X12949500Y26739419D01*
X12964793Y26772080D01*
X12997462Y26828588D01*
X13044350Y26903837D01*
X13102301Y26992725D01*
X13168157Y27090146D01*
X13186627Y27117018D01*
X13251482Y27211577D01*
X13308609Y27295173D01*
X13354678Y27362916D01*
X13386359Y27409914D01*
X13400324Y27431274D01*
X13400668Y27432189D01*
X13396546Y27458322D01*
X13380807Y27511260D01*
X13356004Y27584353D01*
X13324689Y27670948D01*
X13289417Y27764392D01*
X13252740Y27858035D01*
X13217212Y27945223D01*
X13185386Y28019305D01*
X13159816Y28073629D01*
X13143053Y28101543D01*
X13141374Y28103276D01*
X13129372Y28112044D01*
X13109103Y28120885D01*
X13076529Y28130708D01*
X13027616Y28142417D01*
X12958327Y28156920D01*
X12864625Y28175124D01*
X12742476Y28197934D01*
X12587842Y28226259D01*
X12555770Y28232220D01*
X12463893Y28250648D01*
X12386607Y28268108D01*
X12331236Y28282867D01*
X12305105Y28293190D01*
X12300733Y28301803D01*
X12293445Y28343174D01*
X12287669Y28411759D01*
X12283410Y28501132D01*
X12280673Y28604865D01*
X12279462Y28716535D01*
X12279782Y28829713D01*
X12281636Y28937974D01*
X12285030Y29034892D01*
X12289967Y29114041D01*
X12296452Y29168994D01*
X12304489Y29193326D01*
X12312696Y29196921D01*
X12353519Y29208252D01*
X12422524Y29224278D01*
X12514203Y29243805D01*
X12623050Y29265638D01*
X12743558Y29288582D01*
X12809357Y29300841D01*
X12922135Y29322099D01*
X13019207Y29340713D01*
X13095382Y29355672D01*
X13145469Y29365964D01*
X13164276Y29370578D01*
X13164983Y29371529D01*
X13176961Y29395690D01*
X13199794Y29446306D01*
X13230630Y29516662D01*
X13266613Y29600042D01*
X13304891Y29689730D01*
X13342609Y29779011D01*
X13376913Y29861168D01*
X13404949Y29929487D01*
X13423864Y29977252D01*
X13430803Y29997746D01*
X13427742Y30004957D01*
X13407372Y30039272D01*
X13370422Y30097030D01*
X13319860Y30173701D01*
X13258657Y30264752D01*
X13189781Y30365650D01*
X13151994Y30420907D01*
X13086782Y30517785D01*
X13030871Y30602807D01*
X12987241Y30671338D01*
X12958877Y30718740D01*
X12948759Y30740377D01*
X12955790Y30752113D01*
X12985197Y30787182D01*
X13033441Y30840255D01*
X13096093Y30906836D01*
X13168725Y30982426D01*
X13246908Y31062528D01*
X13326214Y31142646D01*
X13402213Y31218282D01*
X13470478Y31284938D01*
X13526580Y31338118D01*
X13566090Y31373324D01*
X13584579Y31386058D01*
X13594843Y31381107D01*
X13632530Y31358143D01*
X13693348Y31319062D01*
X13772913Y31266728D01*
X13866843Y31204004D01*
X13970754Y31133754D01*
X14341794Y30881449D01*
X14651080Y31008947D01*
X14960365Y31136445D01*
X15044186Y31581069D01*
X15128006Y32025693D01*
X16053454Y32025693D01*
X16137275Y31581069D01*
G37*
D17*
X16137275Y31581069D02*
X16221095Y31136445D01*
X16839667Y30881449D01*
X17210707Y31133754D01*
X17284144Y31183494D01*
X17381499Y31248782D01*
X17465787Y31304546D01*
X17532631Y31347922D01*
X17577654Y31376047D01*
X17596478Y31386058D01*
X17608039Y31378939D01*
X17642596Y31349106D01*
X17694894Y31300148D01*
X17760500Y31236560D01*
X17834983Y31162837D01*
X17913913Y31083475D01*
X17992856Y31002969D01*
X18067384Y30925815D01*
X18133063Y30856507D01*
X18185463Y30799543D01*
X18220153Y30759416D01*
X18232701Y30740623D01*
X18229782Y30732549D01*
X18209571Y30696531D01*
X18172663Y30637256D01*
X18122050Y30559370D01*
X18060725Y30467519D01*
X17991679Y30366350D01*
X17953787Y30311174D01*
X17888606Y30215116D01*
X17832723Y30131283D01*
X17789117Y30064223D01*
X17760769Y30018481D01*
X17750657Y29998604D01*
X17750823Y29997503D01*
X17759743Y29972306D01*
X17780206Y29920853D01*
X17809360Y29849865D01*
X17844353Y29766065D01*
X17882332Y29676172D01*
X17920445Y29586909D01*
X17955839Y29504997D01*
X17985662Y29437157D01*
X18007061Y29390110D01*
X18017184Y29370578D01*
X18023174Y29368845D01*
X18059566Y29361031D01*
X18124427Y29348085D01*
X18212565Y29331021D01*
X18318787Y29310849D01*
X18437902Y29288582D01*
X18500683Y29276777D01*
X18615912Y29254252D01*
X18716662Y29233450D01*
X18797426Y29215565D01*
X18852698Y29201792D01*
X18876971Y29193326D01*
X18881331Y29184934D01*
X18888563Y29143928D01*
X18894246Y29075632D01*
X18898382Y28986471D01*
X18900977Y28882872D01*
X18902036Y28771260D01*
X18901561Y28658062D01*
X18899559Y28549704D01*
X18896033Y28452611D01*
X18890987Y28373210D01*
X18884427Y28317928D01*
X18876356Y28293190D01*
X18871458Y28290400D01*
X18834930Y28278431D01*
X18771565Y28262595D01*
X18688686Y28244626D01*
X18593618Y28226259D01*
X18561542Y28220409D01*
X18413393Y28193202D01*
X18296961Y28171337D01*
X18208209Y28153907D01*
X18143103Y28140004D01*
X18097606Y28128723D01*
X18067682Y28119157D01*
X18049294Y28110399D01*
X18038407Y28101543D01*
X18037142Y28100057D01*
X18019338Y28069069D01*
X17992994Y28012366D01*
X17960661Y27936601D01*
X17924893Y27848426D01*
X17888244Y27754493D01*
X17853266Y27661453D01*
X17822513Y27575959D01*
X17798538Y27504664D01*
X17783895Y27454218D01*
X17781136Y27431274D01*
X17782981Y27428297D01*
X17802075Y27399507D01*
X17837984Y27346405D01*
X17887378Y27273883D01*
X17946927Y27186833D01*
X18013303Y27090146D01*
X18031520Y27063544D01*
X18095577Y26968125D01*
X18150937Y26882788D01*
X18194439Y26812595D01*
X18222924Y26762606D01*
X18233232Y26737884D01*
X18231011Y26731384D01*
X18207858Y26699356D01*
X18162177Y26647055D01*
X18097241Y26578001D01*
X18016319Y26495714D01*
X17922685Y26403714D01*
X17869165Y26352219D01*
X17784542Y26272017D01*
X17710475Y26203322D01*
X17650941Y26149748D01*
X17609917Y26114915D01*
X17591381Y26102437D01*
X17578646Y26107062D01*
X17539436Y26128943D01*
X17482495Y26164727D01*
X17415250Y26209883D01*
X17367438Y26242835D01*
X17271985Y26308273D01*
X17170125Y26377772D01*
X17077088Y26440925D01*
X16894832Y26564200D01*
X16741841Y26481480D01*
X16705817Y26462387D01*
X16640303Y26429728D01*
X16589640Y26407181D01*
X16562564Y26398774D01*
X16553703Y26409570D01*
X16531699Y26450677D01*
X16499199Y26518451D01*
X16458010Y26608591D01*
X16409942Y26716795D01*
X16356802Y26838763D01*
X16300399Y26970192D01*
X16242542Y27106782D01*
X16185038Y27244233D01*
X16129697Y27378242D01*
X16078326Y27504509D01*
X16032735Y27618732D01*
X15994732Y27716610D01*
X15966124Y27793843D01*
X15948721Y27846129D01*
X15944331Y27869167D01*
X15944628Y27869840D01*
X15965077Y27891137D01*
X16007850Y27924492D01*
X16064117Y27962989D01*
X16081877Y27974744D01*
X16217014Y28086265D01*
X16328856Y28219094D01*
X16414755Y28367702D01*
X16472062Y28526560D01*
X16498131Y28690140D01*
X16490313Y28852912D01*
X16458644Y28997685D01*
X16401782Y29143876D01*
X16318888Y29274297D01*
X16205131Y29398187D01*
X16160433Y29437765D01*
X16015935Y29535277D01*
X15859838Y29600950D01*
X15696667Y29635370D01*
X15530943Y29639126D01*
X15367192Y29612806D01*
X15209936Y29556997D01*
X15063698Y29472286D01*
X14933004Y29359263D01*
X14822374Y29218513D01*
X14801105Y29183658D01*
X14728810Y29024345D01*
X14690415Y28858448D01*
X14684914Y28690263D01*
X14711301Y28524087D01*
X14768570Y28364216D01*
X14855717Y28214947D01*
X14971736Y28080577D01*
X15115622Y27965401D01*
X15120294Y27962298D01*
X15175964Y27923067D01*
X15217689Y27889714D01*
X15236746Y27869167D01*
X15234342Y27853059D01*
X15219391Y27806156D01*
X15192881Y27733461D01*
X15156620Y27639275D01*
X15112416Y27527902D01*
X15062076Y27403642D01*
X15007407Y27270798D01*
X14950218Y27133673D01*
X14892316Y26996568D01*
X14835510Y26863785D01*
X14781606Y26739626D01*
X14732412Y26628394D01*
X14689737Y26534391D01*
X14655387Y26461918D01*
X14631171Y26415278D01*
X14618897Y26398774D01*
X14608689Y26401009D01*
X14568586Y26417074D01*
X14509318Y26445241D01*
X14439619Y26481480D01*
X14286629Y26564200D01*
X14104373Y26440925D01*
X14050527Y26404421D01*
X13950374Y26336216D01*
X13850525Y26267902D01*
X13766211Y26209883D01*
X13719679Y26178264D01*
X13659200Y26138980D01*
X13614357Y26112088D01*
X13592455Y26102117D01*
X13583045Y26106350D01*
X13549031Y26132279D01*
X13496595Y26177930D01*
X13430301Y26238814D01*
X13354713Y26310439D01*
X13274396Y26388317D01*
X13193913Y26467955D01*
X13117829Y26544865D01*
X13050707Y26614555D01*
X12997112Y26672536D01*
X12961608Y26714316D01*
X12948759Y26735407D01*
X12949500Y26739419D01*
X12964793Y26772080D01*
X12997462Y26828588D01*
X13044350Y26903837D01*
X13102301Y26992725D01*
X13168157Y27090146D01*
X13186627Y27117018D01*
X13251482Y27211577D01*
X13308609Y27295173D01*
X13354678Y27362916D01*
X13386359Y27409914D01*
X13400324Y27431274D01*
X13400668Y27432189D01*
X13396546Y27458322D01*
X13380807Y27511260D01*
X13356004Y27584353D01*
X13324689Y27670948D01*
X13289417Y27764392D01*
X13252740Y27858035D01*
X13217212Y27945223D01*
X13185386Y28019305D01*
X13159816Y28073629D01*
X13143053Y28101543D01*
X13141374Y28103276D01*
X13129372Y28112044D01*
X13109103Y28120885D01*
X13076529Y28130708D01*
X13027616Y28142417D01*
X12958327Y28156920D01*
X12864625Y28175124D01*
X12742476Y28197934D01*
X12587842Y28226259D01*
X12555770Y28232220D01*
X12463893Y28250648D01*
X12386607Y28268108D01*
X12331236Y28282867D01*
X12305105Y28293190D01*
X12300733Y28301803D01*
X12293445Y28343174D01*
X12287669Y28411759D01*
X12283410Y28501132D01*
X12280673Y28604865D01*
X12279462Y28716535D01*
X12279782Y28829713D01*
X12281636Y28937974D01*
X12285030Y29034892D01*
X12289967Y29114041D01*
X12296452Y29168994D01*
X12304489Y29193326D01*
X12312696Y29196921D01*
X12353519Y29208252D01*
X12422524Y29224278D01*
X12514203Y29243805D01*
X12623050Y29265638D01*
X12743558Y29288582D01*
X12809357Y29300841D01*
X12922135Y29322099D01*
X13019207Y29340713D01*
X13095382Y29355672D01*
X13145469Y29365964D01*
X13164276Y29370578D01*
X13164983Y29371529D01*
X13176961Y29395690D01*
X13199794Y29446306D01*
X13230630Y29516662D01*
X13266613Y29600042D01*
X13304891Y29689730D01*
X13342609Y29779011D01*
X13376913Y29861168D01*
X13404949Y29929487D01*
X13423864Y29977252D01*
X13430803Y29997746D01*
X13427742Y30004957D01*
X13407372Y30039272D01*
X13370422Y30097030D01*
X13319860Y30173701D01*
X13258657Y30264752D01*
X13189781Y30365650D01*
X13151994Y30420907D01*
X13086782Y30517785D01*
X13030871Y30602807D01*
X12987241Y30671338D01*
X12958877Y30718740D01*
X12948759Y30740377D01*
X12955790Y30752113D01*
X12985197Y30787182D01*
X13033441Y30840255D01*
X13096093Y30906836D01*
X13168725Y30982426D01*
X13246908Y31062528D01*
X13326214Y31142646D01*
X13402213Y31218282D01*
X13470478Y31284938D01*
X13526580Y31338118D01*
X13566090Y31373324D01*
X13584579Y31386058D01*
X13594843Y31381107D01*
X13632530Y31358143D01*
X13693348Y31319062D01*
X13772913Y31266728D01*
X13866843Y31204004D01*
X13970754Y31133754D01*
X14341794Y30881449D01*
X14651080Y31008947D01*
X14960365Y31136445D01*
X15044186Y31581069D01*
X15128006Y32025693D01*
X16053454Y32025693D01*
X16137275Y31581069D01*
D16*
X20200000Y37200000D02*
X20200000Y37800000D01*
X20500000Y37500000D02*
X20200000Y37800000D01*
X22700000Y36750000D02*
X22700000Y40850000D01*
X22700000Y40850000D02*
X20700000Y40850000D01*
X20700000Y36750000D02*
X22700000Y36750000D01*
X20500000Y37500000D02*
X20200000Y37200000D01*
X20700000Y40850000D02*
X20700000Y36750000D01*
X34987221Y16010000D02*
X35312779Y16010000D01*
X34987221Y14990000D02*
X35312779Y14990000D01*
X34987221Y13490000D02*
X35312779Y13490000D01*
X34987221Y14510000D02*
X35312779Y14510000D01*
X34987221Y16490000D02*
X35312779Y16490000D01*
X34987221Y17510000D02*
X35312779Y17510000D01*
X34987221Y19010000D02*
X35312779Y19010000D01*
X34987221Y17990000D02*
X35312779Y17990000D01*
X17700000Y37200000D02*
X17700000Y37800000D01*
X20200000Y40850000D02*
X18200000Y40850000D01*
X18200000Y36750000D02*
X20200000Y36750000D01*
X20200000Y36750000D02*
X20200000Y40850000D01*
X18200000Y40850000D02*
X18200000Y36750000D01*
X18000000Y37500000D02*
X17700000Y37200000D01*
X18000000Y37500000D02*
X17700000Y37800000D01*
M02*
