G04 #@! TF.GenerationSoftware,KiCad,Pcbnew,(6.0.5)*
G04 #@! TF.CreationDate,2022-09-26T13:26:44+02:00*
G04 #@! TF.ProjectId,Huvud,48757675-642e-46b6-9963-61645f706362,rev?*
G04 #@! TF.SameCoordinates,PXad91980PY876bf80*
G04 #@! TF.FileFunction,Soldermask,Top*
G04 #@! TF.FilePolarity,Negative*
%FSLAX46Y46*%
G04 Gerber Fmt 4.6, Leading zero omitted, Abs format (unit mm)*
G04 Created by KiCad (PCBNEW (6.0.5)) date 2022-09-26 13:26:44*
%MOMM*%
%LPD*%
G01*
G04 APERTURE LIST*
G04 Aperture macros list*
%AMRoundRect*
0 Rectangle with rounded corners*
0 $1 Rounding radius*
0 $2 $3 $4 $5 $6 $7 $8 $9 X,Y pos of 4 corners*
0 Add a 4 corners polygon primitive as box body*
4,1,4,$2,$3,$4,$5,$6,$7,$8,$9,$2,$3,0*
0 Add four circle primitives for the rounded corners*
1,1,$1+$1,$2,$3*
1,1,$1+$1,$4,$5*
1,1,$1+$1,$6,$7*
1,1,$1+$1,$8,$9*
0 Add four rect primitives between the rounded corners*
20,1,$1+$1,$2,$3,$4,$5,0*
20,1,$1+$1,$4,$5,$6,$7,0*
20,1,$1+$1,$6,$7,$8,$9,0*
20,1,$1+$1,$8,$9,$2,$3,0*%
G04 Aperture macros list end*
G04 #@! TA.AperFunction,Profile*
%ADD10C,0.100000*%
G04 #@! TD*
G04 #@! TA.AperFunction,Profile*
%ADD11C,0.050000*%
G04 #@! TD*
%ADD12RoundRect,0.147500X0.172500X-0.147500X0.172500X0.147500X-0.172500X0.147500X-0.172500X-0.147500X0*%
%ADD13RoundRect,0.147500X-0.147500X-0.172500X0.147500X-0.172500X0.147500X0.172500X-0.147500X0.172500X0*%
%ADD14R,2.400000X2.000000*%
%ADD15RoundRect,0.147500X0.147500X0.172500X-0.147500X0.172500X-0.147500X-0.172500X0.147500X-0.172500X0*%
%ADD16RoundRect,0.147500X-0.172500X0.147500X-0.172500X-0.147500X0.172500X-0.147500X0.172500X0.147500X0*%
%ADD17RoundRect,0.075000X-0.662500X-0.075000X0.662500X-0.075000X0.662500X0.075000X-0.662500X0.075000X0*%
%ADD18RoundRect,0.075000X-0.075000X-0.662500X0.075000X-0.662500X0.075000X0.662500X-0.075000X0.662500X0*%
%ADD19RoundRect,0.243750X0.243750X0.456250X-0.243750X0.456250X-0.243750X-0.456250X0.243750X-0.456250X0*%
%ADD20RoundRect,0.250000X0.625000X-0.350000X0.625000X0.350000X-0.625000X0.350000X-0.625000X-0.350000X0*%
%ADD21O,1.750000X1.200000*%
%ADD22R,0.900000X0.800000*%
%ADD23C,6.400000*%
%ADD24C,0.800000*%
%ADD25RoundRect,0.218750X0.218750X0.256250X-0.218750X0.256250X-0.218750X-0.256250X0.218750X-0.256250X0*%
%ADD26RoundRect,0.218750X-0.218750X-0.256250X0.218750X-0.256250X0.218750X0.256250X-0.218750X0.256250X0*%
%ADD27RoundRect,0.250000X-0.625000X0.375000X-0.625000X-0.375000X0.625000X-0.375000X0.625000X0.375000X0*%
%ADD28RoundRect,0.250000X0.625000X-0.375000X0.625000X0.375000X-0.625000X0.375000X-0.625000X-0.375000X0*%
%ADD29R,0.400000X1.350000*%
%ADD30R,1.200000X1.900000*%
%ADD31O,1.200000X1.900000*%
%ADD32R,1.500000X1.900000*%
%ADD33C,1.450000*%
%ADD34R,1.700000X1.700000*%
%ADD35O,1.700000X1.700000*%
%ADD36R,0.203200X0.762000*%
%ADD37R,0.762000X0.203200*%
%ADD38R,3.600000X3.600000*%
%ADD39RoundRect,0.075000X-0.325000X-0.075000X0.325000X-0.075000X0.325000X0.075000X-0.325000X0.075000X0*%
%ADD40R,1.700000X2.050000*%
%ADD41RoundRect,0.250000X-1.075000X0.375000X-1.075000X-0.375000X1.075000X-0.375000X1.075000X0.375000X0*%
%ADD42RoundRect,0.243750X0.456250X-0.243750X0.456250X0.243750X-0.456250X0.243750X-0.456250X-0.243750X0*%
%ADD43R,1.060000X0.650000*%
%ADD44R,1.900000X2.500000*%
%ADD45R,2.100000X2.100000*%
%ADD46C,2.100000*%
%ADD47RoundRect,0.250000X-0.550000X1.500000X-0.550000X-1.500000X0.550000X-1.500000X0.550000X1.500000X0*%
%ADD48RoundRect,0.249600X-0.550400X1.500400X-0.550400X-1.500400X0.550400X-1.500400X0.550400X1.500400X0*%
%ADD49RoundRect,0.250000X0.725000X-0.600000X0.725000X0.600000X-0.725000X0.600000X-0.725000X-0.600000X0*%
%ADD50O,1.950000X1.700000*%
%ADD51C,3.000000*%
%ADD52RoundRect,0.250001X-0.499999X-0.499999X0.499999X-0.499999X0.499999X0.499999X-0.499999X0.499999X0*%
%ADD53C,1.500000*%
%ADD54RoundRect,0.218750X0.256250X-0.218750X0.256250X0.218750X-0.256250X0.218750X-0.256250X-0.218750X0*%
%ADD55RoundRect,0.218750X-0.256250X0.218750X-0.256250X-0.218750X0.256250X-0.218750X0.256250X0.218750X0*%
%ADD56RoundRect,0.150000X-0.825000X-0.150000X0.825000X-0.150000X0.825000X0.150000X-0.825000X0.150000X0*%
%ADD57R,0.800000X0.900000*%
%ADD58RoundRect,0.150000X-0.325000X-0.150000X0.325000X-0.150000X0.325000X0.150000X-0.325000X0.150000X0*%
%ADD59RoundRect,0.150000X-0.150000X-0.325000X0.150000X-0.325000X0.150000X0.325000X-0.150000X0.325000X0*%
%ADD60R,1.350000X1.350000*%
%ADD61O,1.350000X1.350000*%
%ADD62RoundRect,0.140000X-0.170000X0.140000X-0.170000X-0.140000X0.170000X-0.140000X0.170000X0.140000X0*%
G04 APERTURE END LIST*
D10*
X42000000Y38000000D02*
X42000000Y4000000D01*
D11*
X4000000Y42000000D02*
X8000000Y42000000D01*
X17900000Y42000000D02*
X38000000Y42000000D01*
D10*
X9000000Y41000000D02*
X8000000Y42000000D01*
D11*
X4000000Y0D02*
X0Y4000000D01*
X38000000Y42000000D02*
X42000000Y38000000D01*
D10*
X17900000Y42000000D02*
X16900000Y41000000D01*
X16900000Y41000000D02*
X9000000Y41000000D01*
D11*
X0Y38000000D02*
X4000000Y42000000D01*
D10*
X0Y4000000D02*
X0Y38000000D01*
D11*
X38000000Y0D02*
X42000000Y4000000D01*
D10*
X38000000Y0D02*
X4000000Y0D01*
D12*
X6050000Y16215000D03*
X6050000Y17185000D03*
D13*
X12830000Y10475000D03*
X13800000Y10475000D03*
D14*
X8450000Y16850000D03*
X8450000Y20550000D03*
D13*
X11015000Y23100000D03*
X11985000Y23100000D03*
D15*
X20885000Y23700000D03*
X19915000Y23700000D03*
D13*
X6665000Y28400000D03*
X7635000Y28400000D03*
D16*
X6050000Y20985000D03*
X6050000Y20015000D03*
D15*
X7635000Y32400000D03*
X6665000Y32400000D03*
D17*
X12121100Y22166900D03*
X12121100Y21666900D03*
X12121100Y21166900D03*
X12121100Y20666900D03*
X12121100Y20166900D03*
X12121100Y19666900D03*
X12121100Y19166900D03*
X12121100Y18666900D03*
X12121100Y18166900D03*
X12121100Y17666900D03*
X12121100Y17166900D03*
X12121100Y16666900D03*
D18*
X13533600Y15254400D03*
X14033600Y15254400D03*
X14533600Y15254400D03*
X15033600Y15254400D03*
X15533600Y15254400D03*
X16033600Y15254400D03*
X16533600Y15254400D03*
X17033600Y15254400D03*
X17533600Y15254400D03*
X18033600Y15254400D03*
X18533600Y15254400D03*
X19033600Y15254400D03*
D17*
X20446100Y16666900D03*
X20446100Y17166900D03*
X20446100Y17666900D03*
X20446100Y18166900D03*
X20446100Y18666900D03*
X20446100Y19166900D03*
X20446100Y19666900D03*
X20446100Y20166900D03*
X20446100Y20666900D03*
X20446100Y21166900D03*
X20446100Y21666900D03*
X20446100Y22166900D03*
D18*
X19033600Y23579400D03*
X18533600Y23579400D03*
X18033600Y23579400D03*
X17533600Y23579400D03*
X17033600Y23579400D03*
X16533600Y23579400D03*
X16033600Y23579400D03*
X15533600Y23579400D03*
X15033600Y23579400D03*
X14533600Y23579400D03*
X14033600Y23579400D03*
X13533600Y23579400D03*
D13*
X11015000Y24050000D03*
X11985000Y24050000D03*
D19*
X13937500Y13300000D03*
X12062500Y13300000D03*
D13*
X6665000Y31400000D03*
X7635000Y31400000D03*
X9315000Y34300000D03*
X10285000Y34300000D03*
D20*
X2100000Y11500000D03*
D21*
X2100000Y13500000D03*
X2100000Y15500000D03*
X2100000Y17500000D03*
X2100000Y19500000D03*
D16*
X3300000Y23385000D03*
X3300000Y22415000D03*
D12*
X20550000Y14815000D03*
X20550000Y15785000D03*
X21500000Y14815000D03*
X21500000Y15785000D03*
D13*
X6665000Y29400000D03*
X7635000Y29400000D03*
D15*
X7635000Y30400000D03*
X6665000Y30400000D03*
D12*
X16250000Y11215000D03*
X16250000Y12185000D03*
X21650000Y7435000D03*
X21650000Y8405000D03*
D13*
X28265000Y8000000D03*
X29235000Y8000000D03*
D22*
X18450000Y13250000D03*
X18450000Y11350000D03*
X20450000Y12300000D03*
D12*
X15350000Y7415000D03*
X15350000Y8385000D03*
X22600000Y7435000D03*
X22600000Y8405000D03*
D20*
X23250000Y2500000D03*
D21*
X23250000Y4500000D03*
D23*
X36500000Y36500000D03*
D24*
X38900000Y36500000D03*
X34802944Y34802944D03*
X38197056Y34802944D03*
X36500000Y38900000D03*
X38197056Y38197056D03*
X36500000Y34100000D03*
X34100000Y36500000D03*
X34802944Y38197056D03*
X36500000Y7900000D03*
X34802944Y3802944D03*
X36500000Y3100000D03*
X34100000Y5500000D03*
X38197056Y7197056D03*
X38197056Y3802944D03*
D23*
X36500000Y5500000D03*
D24*
X34802944Y7197056D03*
X38900000Y5500000D03*
D15*
X24585000Y17800000D03*
X23615000Y17800000D03*
X24585000Y13600000D03*
X23615000Y13600000D03*
D25*
X30187500Y22950000D03*
X28612500Y22950000D03*
D26*
X25812500Y20600000D03*
X27387500Y20600000D03*
D25*
X30037500Y9900000D03*
X28462500Y9900000D03*
D27*
X34050000Y22200000D03*
X34050000Y19400000D03*
D28*
X34050000Y10600000D03*
X34050000Y13400000D03*
D15*
X13800000Y9525000D03*
X12830000Y9525000D03*
D20*
X10850000Y2500000D03*
D21*
X10850000Y4500000D03*
X10850000Y6500000D03*
D15*
X24585000Y16600000D03*
X23615000Y16600000D03*
D29*
X14200000Y36937500D03*
X13550000Y36937500D03*
X12900000Y36937500D03*
X12250000Y36937500D03*
X11600000Y36937500D03*
D30*
X10000000Y39637500D03*
D31*
X9400000Y39637500D03*
D32*
X13900000Y39637500D03*
D33*
X10400000Y36937500D03*
D31*
X16400000Y39637500D03*
D30*
X15800000Y39637500D03*
D33*
X15400000Y36937500D03*
D32*
X11900000Y39637500D03*
D24*
X7900000Y5500000D03*
X5500000Y7900000D03*
X7197056Y3802944D03*
X3100000Y5500000D03*
X7197056Y7197056D03*
X3802944Y3802944D03*
D23*
X5500000Y5500000D03*
D24*
X3802944Y7197056D03*
X5500000Y3100000D03*
D34*
X4388500Y26024000D03*
D35*
X1848500Y26024000D03*
X4388500Y28564000D03*
X1848500Y28564000D03*
X4388500Y31104000D03*
X1848500Y31104000D03*
D24*
X7197056Y34802944D03*
X5500000Y34100000D03*
X3100000Y36500000D03*
D23*
X5500000Y36500000D03*
D24*
X3802944Y34802944D03*
X7197056Y38197056D03*
X7900000Y36500000D03*
X5500000Y38900000D03*
X3802944Y38197056D03*
D12*
X16300000Y7415000D03*
X16300000Y8385000D03*
D15*
X31135000Y8000000D03*
X30165000Y8000000D03*
D20*
X17050000Y2500000D03*
D21*
X17050000Y4500000D03*
D12*
X2350000Y22415000D03*
X2350000Y23385000D03*
D16*
X17200000Y12185000D03*
X17200000Y11215000D03*
D36*
X29887800Y18800900D03*
X29387801Y18800900D03*
X28887799Y18800900D03*
X28387800Y18800900D03*
X27887801Y18800900D03*
X27387799Y18800900D03*
X26887800Y18800900D03*
D37*
X25962100Y17875200D03*
X25962100Y17375201D03*
X25962100Y16875199D03*
X25962100Y16375200D03*
X25962100Y15875201D03*
X25962100Y15375199D03*
X25962100Y14875200D03*
D36*
X26887800Y13949500D03*
X27387799Y13949500D03*
X27887801Y13949500D03*
X28387800Y13949500D03*
X28887799Y13949500D03*
X29387801Y13949500D03*
X29887800Y13949500D03*
D37*
X30813500Y14875200D03*
X30813500Y15375199D03*
X30813500Y15875201D03*
X30813500Y16375200D03*
X30813500Y16875199D03*
X30813500Y17375201D03*
X30813500Y17875200D03*
D38*
X28387800Y16375200D03*
D12*
X7700000Y24315000D03*
X7700000Y25285000D03*
D15*
X7635000Y27400000D03*
X6665000Y27400000D03*
X7635000Y26400000D03*
X6665000Y26400000D03*
X24585000Y15600000D03*
X23615000Y15600000D03*
D13*
X23615000Y14600000D03*
X24585000Y14600000D03*
D39*
X24150000Y10675000D03*
X24150000Y10025000D03*
X24150000Y9375000D03*
X24150000Y8725000D03*
D40*
X25600000Y9700000D03*
D39*
X27050000Y8725000D03*
X27050000Y10675000D03*
X27050000Y10025000D03*
X27050000Y9375000D03*
D13*
X23565000Y7450000D03*
X24535000Y7450000D03*
D41*
X24950000Y28480000D03*
X24950000Y25680000D03*
D42*
X19200000Y31262500D03*
X19200000Y33137500D03*
D43*
X27370000Y28070000D03*
X27370000Y27120000D03*
X27370000Y26170000D03*
X29570000Y26170000D03*
X29570000Y27120000D03*
X29570000Y28070000D03*
D42*
X17200000Y31262500D03*
X17200000Y33137500D03*
X21200000Y31262500D03*
X21200000Y33137500D03*
D25*
X25637500Y24050000D03*
X24062500Y24050000D03*
D26*
X22912500Y31150000D03*
X24487500Y31150000D03*
D12*
X1400000Y22415000D03*
X1400000Y23385000D03*
D16*
X32100000Y26485000D03*
X32100000Y25515000D03*
D13*
X31115000Y27450000D03*
X32085000Y27450000D03*
D15*
X32085000Y28400000D03*
X31115000Y28400000D03*
D16*
X31100000Y26485000D03*
X31100000Y25515000D03*
D44*
X21900000Y27550000D03*
X17800000Y27550000D03*
D12*
X9100000Y26915000D03*
X9100000Y27885000D03*
D45*
X31300000Y3750000D03*
D46*
X28760000Y3750000D03*
D47*
X36350000Y30450000D03*
D48*
X36350000Y25050000D03*
D16*
X6700000Y25285000D03*
X6700000Y24315000D03*
D13*
X10915000Y14800000D03*
X11885000Y14800000D03*
X10915000Y15750000D03*
X11885000Y15750000D03*
D49*
X38038500Y12524000D03*
D50*
X38038500Y15024000D03*
X38038500Y17524000D03*
X38038500Y20024000D03*
D15*
X10285000Y35300000D03*
X9315000Y35300000D03*
D13*
X13115000Y35300000D03*
X14085000Y35300000D03*
X11215000Y35300000D03*
X12185000Y35300000D03*
D15*
X14085000Y34300000D03*
X13115000Y34300000D03*
X13800000Y11425000D03*
X12830000Y11425000D03*
D51*
X28000000Y37770000D03*
D52*
X26500000Y33450000D03*
D53*
X29500000Y33450000D03*
X26500000Y30450000D03*
X29500000Y30450000D03*
D54*
X24300000Y19112500D03*
X24300000Y20687500D03*
D55*
X40700000Y30687500D03*
X40700000Y29112500D03*
D56*
X9425000Y33005000D03*
X9425000Y31735000D03*
X9425000Y30465000D03*
X9425000Y29195000D03*
X14375000Y29195000D03*
X14375000Y30465000D03*
X14375000Y31735000D03*
X14375000Y33005000D03*
D57*
X19250000Y38700000D03*
X21150000Y38700000D03*
X20200000Y40700000D03*
D13*
X20615000Y37500000D03*
X21585000Y37500000D03*
X18715000Y37500000D03*
X19685000Y37500000D03*
D16*
X9400000Y23385000D03*
X9400000Y22415000D03*
X6450000Y23385000D03*
X6450000Y22415000D03*
X7450000Y23395000D03*
X7450000Y22425000D03*
D12*
X8440000Y22425000D03*
X8440000Y23395000D03*
X4250000Y22415000D03*
X4250000Y23385000D03*
X5200000Y22415000D03*
X5200000Y23385000D03*
D58*
X7300000Y13750000D03*
X7300000Y12950000D03*
X7300000Y12150000D03*
X7300000Y11350000D03*
X7300000Y10550000D03*
X7300000Y9750000D03*
D59*
X8300000Y9750000D03*
D58*
X9300000Y9750000D03*
X9300000Y10550000D03*
X9300000Y11350000D03*
X9300000Y12150000D03*
X9300000Y12950000D03*
X9300000Y13750000D03*
D59*
X8300000Y13750000D03*
D16*
X10950000Y27885000D03*
X10950000Y26915000D03*
D26*
X9262500Y25700000D03*
X10837500Y25700000D03*
D12*
X5900000Y13115000D03*
X5900000Y14085000D03*
D22*
X12250000Y27550000D03*
X12250000Y25650000D03*
X14250000Y26600000D03*
D57*
X19500000Y9650000D03*
X17600000Y9650000D03*
X18550000Y7650000D03*
D15*
X16335000Y10300000D03*
X15365000Y10300000D03*
D13*
X15365000Y9350000D03*
X16335000Y9350000D03*
D12*
X6050000Y18115000D03*
X6050000Y19085000D03*
D13*
X22115000Y21950000D03*
X23085000Y21950000D03*
D12*
X15500000Y25315000D03*
X15500000Y26285000D03*
D16*
X21800000Y10885000D03*
X21800000Y9915000D03*
D13*
X10950000Y11425000D03*
X11920000Y11425000D03*
D15*
X11920000Y10475000D03*
X10950000Y10475000D03*
D13*
X10950000Y9525000D03*
X11920000Y9525000D03*
D26*
X15262500Y34800000D03*
X16837500Y34800000D03*
D13*
X22065000Y20400000D03*
X23035000Y20400000D03*
D60*
X18900000Y35400000D03*
D61*
X20900000Y35400000D03*
D12*
X40500000Y31915000D03*
X40500000Y32885000D03*
D62*
X5900000Y12230000D03*
X5900000Y11270000D03*
X5900000Y10380000D03*
X5900000Y9420000D03*
M02*
