G04 #@! TF.GenerationSoftware,KiCad,Pcbnew,(6.0.5)*
G04 #@! TF.CreationDate,2022-09-26T13:26:44+02:00*
G04 #@! TF.ProjectId,Huvud,48757675-642e-46b6-9963-61645f706362,rev?*
G04 #@! TF.SameCoordinates,PXad91980PY876bf80*
G04 #@! TF.FileFunction,Legend,Top*
G04 #@! TF.FilePolarity,Positive*
%FSLAX46Y46*%
G04 Gerber Fmt 4.6, Leading zero omitted, Abs format (unit mm)*
G04 Created by KiCad (PCBNEW (6.0.5)) date 2022-09-26 13:26:44*
%MOMM*%
%LPD*%
G01*
G04 APERTURE LIST*
%ADD10C,0.300000*%
G04 #@! TA.AperFunction,Profile*
%ADD11C,0.100000*%
G04 #@! TD*
G04 #@! TA.AperFunction,Profile*
%ADD12C,0.050000*%
G04 #@! TD*
%ADD13C,0.150000*%
%ADD14C,0.200000*%
%ADD15C,0.120000*%
%ADD16C,0.100000*%
%ADD17C,0.152400*%
G04 APERTURE END LIST*
D10*
X8150000Y33200000D02*
G75*
G03*
X8150000Y33200000I-150000J0D01*
G01*
X27020000Y29280000D02*
G75*
G03*
X27020000Y29280000I-150000J0D01*
G01*
X23700000Y11750000D02*
G75*
G03*
X23700000Y11750000I-150000J0D01*
G01*
X6850000Y14550000D02*
G75*
G03*
X6850000Y14550000I-150000J0D01*
G01*
X30800000Y19600000D02*
G75*
G03*
X30800000Y19600000I-150000J0D01*
G01*
X10850000Y22200000D02*
G75*
G03*
X10850000Y22200000I-150000J0D01*
G01*
D11*
X42000000Y38000000D02*
X42000000Y4000000D01*
D12*
X4000000Y42000000D02*
X8000000Y42000000D01*
X17900000Y42000000D02*
X38000000Y42000000D01*
D11*
X9000000Y41000000D02*
X8000000Y42000000D01*
D12*
X4000000Y0D02*
X0Y4000000D01*
X38000000Y42000000D02*
X42000000Y38000000D01*
D11*
X17900000Y42000000D02*
X16900000Y41000000D01*
X16900000Y41000000D02*
X9000000Y41000000D01*
D12*
X0Y38000000D02*
X4000000Y42000000D01*
D11*
X0Y4000000D02*
X0Y38000000D01*
D12*
X38000000Y0D02*
X42000000Y4000000D01*
D11*
X38000000Y0D02*
X4000000Y0D01*
D13*
X27061904Y1961905D02*
X26261904Y1961905D01*
X26642857Y1961905D02*
X26642857Y2419048D01*
X27061904Y2419048D02*
X26261904Y2419048D01*
X26642857Y2800000D02*
X26642857Y3066667D01*
X27061904Y3180953D02*
X27061904Y2800000D01*
X26261904Y2800000D01*
X26261904Y3180953D01*
X26833333Y3485715D02*
X26833333Y3866667D01*
X27061904Y3409524D02*
X26261904Y3676191D01*
X27061904Y3942858D01*
X26261904Y4095239D02*
X26261904Y4552381D01*
X27061904Y4323810D02*
X26261904Y4323810D01*
X20757142Y304762D02*
X20757142Y914286D01*
X21061904Y609524D02*
X20452380Y609524D01*
X20642857Y2171429D02*
X20642857Y1904762D01*
X21061904Y1904762D02*
X20261904Y1904762D01*
X20261904Y2285715D01*
X20833333Y2552381D02*
X20833333Y2933334D01*
X21061904Y2476191D02*
X20261904Y2742858D01*
X21061904Y3009524D01*
X21061904Y3276191D02*
X20261904Y3276191D01*
X21061904Y3733334D01*
X20261904Y3733334D01*
X20261904Y4266667D02*
X20261904Y4342858D01*
X20300000Y4419048D01*
X20338095Y4457143D01*
X20414285Y4495239D01*
X20566666Y4533334D01*
X20757142Y4533334D01*
X20909523Y4495239D01*
X20985714Y4457143D01*
X21023809Y4419048D01*
X21061904Y4342858D01*
X21061904Y4266667D01*
X21023809Y4190477D01*
X20985714Y4152381D01*
X20909523Y4114286D01*
X20757142Y4076191D01*
X20566666Y4076191D01*
X20414285Y4114286D01*
X20338095Y4152381D01*
X20300000Y4190477D01*
X20261904Y4266667D01*
X20757142Y5485715D02*
X20757142Y6095239D01*
X37919452Y22919239D02*
X38062309Y22871620D01*
X38300404Y22871620D01*
X38395642Y22919239D01*
X38443261Y22966858D01*
X38490880Y23062096D01*
X38490880Y23157334D01*
X38443261Y23252572D01*
X38395642Y23300191D01*
X38300404Y23347810D01*
X38109928Y23395429D01*
X38014690Y23443048D01*
X37967071Y23490667D01*
X37919452Y23585905D01*
X37919452Y23681143D01*
X37967071Y23776381D01*
X38014690Y23824000D01*
X38109928Y23871620D01*
X38348023Y23871620D01*
X38490880Y23824000D01*
X38776595Y23871620D02*
X39348023Y23871620D01*
X39062309Y22871620D02*
X39062309Y23871620D01*
X39681357Y23395429D02*
X40014690Y23395429D01*
X40157547Y22871620D02*
X39681357Y22871620D01*
X39681357Y23871620D01*
X40157547Y23871620D01*
X40586119Y22871620D02*
X40586119Y23871620D01*
X40967071Y23871620D01*
X41062309Y23824000D01*
X41109928Y23776381D01*
X41157547Y23681143D01*
X41157547Y23538286D01*
X41109928Y23443048D01*
X41062309Y23395429D01*
X40967071Y23347810D01*
X40586119Y23347810D01*
D14*
X34145238Y40864286D02*
X34383333Y40197620D01*
X34621428Y40864286D01*
X35192857Y41197620D02*
X35288095Y41197620D01*
X35383333Y41150000D01*
X35430952Y41102381D01*
X35478571Y41007143D01*
X35526190Y40816667D01*
X35526190Y40578572D01*
X35478571Y40388096D01*
X35430952Y40292858D01*
X35383333Y40245239D01*
X35288095Y40197620D01*
X35192857Y40197620D01*
X35097619Y40245239D01*
X35050000Y40292858D01*
X35002380Y40388096D01*
X34954761Y40578572D01*
X34954761Y40816667D01*
X35002380Y41007143D01*
X35050000Y41102381D01*
X35097619Y41150000D01*
X35192857Y41197620D01*
X35954761Y40292858D02*
X36002380Y40245239D01*
X35954761Y40197620D01*
X35907142Y40245239D01*
X35954761Y40292858D01*
X35954761Y40197620D01*
X36859523Y41197620D02*
X36669047Y41197620D01*
X36573809Y41150000D01*
X36526190Y41102381D01*
X36430952Y40959524D01*
X36383333Y40769048D01*
X36383333Y40388096D01*
X36430952Y40292858D01*
X36478571Y40245239D01*
X36573809Y40197620D01*
X36764285Y40197620D01*
X36859523Y40245239D01*
X36907142Y40292858D01*
X36954761Y40388096D01*
X36954761Y40626191D01*
X36907142Y40721429D01*
X36859523Y40769048D01*
X36764285Y40816667D01*
X36573809Y40816667D01*
X36478571Y40769048D01*
X36430952Y40721429D01*
X36383333Y40626191D01*
X37335714Y41102381D02*
X37383333Y41150000D01*
X37478571Y41197620D01*
X37716666Y41197620D01*
X37811904Y41150000D01*
X37859523Y41102381D01*
X37907142Y41007143D01*
X37907142Y40911905D01*
X37859523Y40769048D01*
X37288095Y40197620D01*
X37907142Y40197620D01*
D13*
X28773809Y32288096D02*
X29040476Y31488096D01*
X29307142Y32288096D01*
X29573809Y31488096D02*
X29573809Y32288096D01*
X29954761Y31488096D02*
X29954761Y32288096D01*
X30411904Y31488096D01*
X30411904Y32288096D01*
X26040476Y32300000D02*
X25964285Y32338096D01*
X25850000Y32338096D01*
X25735714Y32300000D01*
X25659523Y32223810D01*
X25621428Y32147620D01*
X25583333Y31995239D01*
X25583333Y31880953D01*
X25621428Y31728572D01*
X25659523Y31652381D01*
X25735714Y31576191D01*
X25850000Y31538096D01*
X25926190Y31538096D01*
X26040476Y31576191D01*
X26078571Y31614286D01*
X26078571Y31880953D01*
X25926190Y31880953D01*
X26421428Y31538096D02*
X26421428Y32338096D01*
X26878571Y31538096D01*
X26878571Y32338096D01*
X27259523Y31538096D02*
X27259523Y32338096D01*
X27450000Y32338096D01*
X27564285Y32300000D01*
X27640476Y32223810D01*
X27678571Y32147620D01*
X27716666Y31995239D01*
X27716666Y31880953D01*
X27678571Y31728572D01*
X27640476Y31652381D01*
X27564285Y31576191D01*
X27450000Y31538096D01*
X27259523Y31538096D01*
X40261904Y26623810D02*
X41061904Y26890477D01*
X40261904Y27157143D01*
X41061904Y27423810D02*
X40261904Y27423810D01*
X41061904Y27804762D02*
X40261904Y27804762D01*
X41061904Y28261905D01*
X40261904Y28261905D01*
X33119047Y1028572D02*
X33880952Y1028572D01*
X33500000Y647620D02*
X33500000Y1409524D01*
X14457142Y304762D02*
X14457142Y914286D01*
X14761904Y609524D02*
X14152380Y609524D01*
X14342857Y2171429D02*
X14342857Y1904762D01*
X14761904Y1904762D02*
X13961904Y1904762D01*
X13961904Y2285715D01*
X14533333Y2552381D02*
X14533333Y2933334D01*
X14761904Y2476191D02*
X13961904Y2742858D01*
X14761904Y3009524D01*
X14761904Y3276191D02*
X13961904Y3276191D01*
X14761904Y3733334D01*
X13961904Y3733334D01*
X14761904Y4533334D02*
X14761904Y4076191D01*
X14761904Y4304762D02*
X13961904Y4304762D01*
X14076190Y4228572D01*
X14152380Y4152381D01*
X14190476Y4076191D01*
X14457142Y5485715D02*
X14457142Y6095239D01*
X26319047Y928572D02*
X27080952Y928572D01*
X185714Y8421429D02*
X519047Y8421429D01*
X661904Y7897620D02*
X185714Y7897620D01*
X185714Y8897620D01*
X661904Y8897620D01*
X1090476Y7897620D02*
X1090476Y8897620D01*
X1661904Y7897620D01*
X1661904Y8897620D01*
X2138095Y7897620D02*
X2138095Y8897620D01*
X2376190Y8897620D01*
X2519047Y8850000D01*
X2614285Y8754762D01*
X2661904Y8659524D01*
X2709523Y8469048D01*
X2709523Y8326191D01*
X2661904Y8135715D01*
X2614285Y8040477D01*
X2519047Y7945239D01*
X2376190Y7897620D01*
X2138095Y7897620D01*
X3090476Y7945239D02*
X3233333Y7897620D01*
X3471428Y7897620D01*
X3566666Y7945239D01*
X3614285Y7992858D01*
X3661904Y8088096D01*
X3661904Y8183334D01*
X3614285Y8278572D01*
X3566666Y8326191D01*
X3471428Y8373810D01*
X3280952Y8421429D01*
X3185714Y8469048D01*
X3138095Y8516667D01*
X3090476Y8611905D01*
X3090476Y8707143D01*
X3138095Y8802381D01*
X3185714Y8850000D01*
X3280952Y8897620D01*
X3519047Y8897620D01*
X3661904Y8850000D01*
D14*
X3638095Y40097620D02*
X3638095Y41097620D01*
X3638095Y40621429D02*
X4209523Y40621429D01*
X4209523Y40097620D02*
X4209523Y41097620D01*
X4685714Y41097620D02*
X4685714Y40288096D01*
X4733333Y40192858D01*
X4780952Y40145239D01*
X4876190Y40097620D01*
X5066666Y40097620D01*
X5161904Y40145239D01*
X5209523Y40192858D01*
X5257142Y40288096D01*
X5257142Y41097620D01*
X5590476Y41097620D02*
X5923809Y40097620D01*
X6257142Y41097620D01*
X6590476Y41097620D02*
X6590476Y40288096D01*
X6638095Y40192858D01*
X6685714Y40145239D01*
X6780952Y40097620D01*
X6971428Y40097620D01*
X7066666Y40145239D01*
X7114285Y40192858D01*
X7161904Y40288096D01*
X7161904Y41097620D01*
X7638095Y40097620D02*
X7638095Y41097620D01*
X7876190Y41097620D01*
X8019047Y41050000D01*
X8114285Y40954762D01*
X8161904Y40859524D01*
X8209523Y40669048D01*
X8209523Y40526191D01*
X8161904Y40335715D01*
X8114285Y40240477D01*
X8019047Y40145239D01*
X7876190Y40097620D01*
X7638095Y40097620D01*
D13*
X7502380Y890477D02*
X7502380Y1461905D01*
X8502380Y1176191D02*
X7502380Y1176191D01*
X8502380Y1795239D02*
X7502380Y1795239D01*
X7978571Y1795239D02*
X7978571Y2366667D01*
X8502380Y2366667D02*
X7502380Y2366667D01*
D15*
X10250000Y15650000D02*
X10250000Y21400000D01*
X6650000Y15650000D02*
X10250000Y15650000D01*
X6650000Y21400000D02*
X6650000Y15650000D01*
X19443600Y15806900D02*
X19893600Y15806900D01*
X12673600Y23026900D02*
X12673600Y22576900D01*
X19893600Y23026900D02*
X19893600Y22576900D01*
X12673600Y22576900D02*
X11383600Y22576900D01*
X12673600Y15806900D02*
X12673600Y16256900D01*
X19893600Y15806900D02*
X19893600Y16256900D01*
X13123600Y15806900D02*
X12673600Y15806900D01*
X19443600Y23026900D02*
X19893600Y23026900D01*
X13123600Y23026900D02*
X12673600Y23026900D01*
X13258578Y12590000D02*
X12741422Y12590000D01*
X13258578Y14010000D02*
X12741422Y14010000D01*
X3900000Y18600000D02*
X4400000Y18600000D01*
X900000Y12000000D02*
X900000Y10050000D01*
X3900000Y12600000D02*
X4400000Y12600000D01*
X3900000Y14400000D02*
X3900000Y14600000D01*
X3900000Y12400000D02*
X3900000Y12600000D01*
X1600000Y9440000D02*
X1600000Y10050000D01*
X900000Y19000000D02*
X290000Y19000000D01*
X1600000Y21560000D02*
X1600000Y20950000D01*
X-10000Y9140000D02*
X1240000Y9140000D01*
X2900000Y21560000D02*
X2900000Y20950000D01*
X290000Y11200000D02*
X90000Y11200000D01*
X3900000Y14600000D02*
X4400000Y14600000D01*
X-10000Y10390000D02*
X-10000Y9140000D01*
X900000Y20950000D02*
X900000Y19000000D01*
X4400000Y12500000D02*
X3900000Y12500000D01*
X4400000Y20950000D02*
X900000Y20950000D01*
X5010000Y21560000D02*
X290000Y21560000D01*
X4400000Y18500000D02*
X3900000Y18500000D01*
X4400000Y12400000D02*
X3900000Y12400000D01*
X2900000Y9440000D02*
X2900000Y10050000D01*
X4400000Y14400000D02*
X3900000Y14400000D01*
X290000Y12000000D02*
X900000Y12000000D01*
X4400000Y16500000D02*
X3900000Y16500000D01*
X900000Y10050000D02*
X4400000Y10050000D01*
X5010000Y9440000D02*
X5010000Y21560000D01*
X3900000Y16600000D02*
X4400000Y16600000D01*
X4400000Y10050000D02*
X4400000Y20950000D01*
X4400000Y14500000D02*
X3900000Y14500000D01*
X190000Y11200000D02*
X190000Y10900000D01*
X4400000Y18400000D02*
X3900000Y18400000D01*
X3900000Y18400000D02*
X3900000Y18600000D01*
X290000Y9440000D02*
X5010000Y9440000D01*
X290000Y21560000D02*
X290000Y9440000D01*
X4400000Y16400000D02*
X3900000Y16400000D01*
X90000Y10900000D02*
X290000Y10900000D01*
X3900000Y16400000D02*
X3900000Y16600000D01*
X90000Y11200000D02*
X90000Y10900000D01*
D16*
X21700000Y6830000D02*
G75*
G03*
X21700000Y6830000I-50000J0D01*
G01*
X27710000Y8000000D02*
G75*
G03*
X27710000Y8000000I-50000J0D01*
G01*
D15*
X20210000Y13880000D02*
X18050000Y13880000D01*
X20210000Y13880000D02*
X20210000Y12950000D01*
X20210000Y10720000D02*
X18750000Y10720000D01*
X20210000Y10720000D02*
X20210000Y11650000D01*
X21440000Y6560000D02*
X21440000Y440000D01*
X26160000Y440000D02*
X26160000Y6560000D01*
X22050000Y5950000D02*
X22050000Y4000000D01*
X21440000Y440000D02*
X26160000Y440000D01*
X22750000Y6560000D02*
X22750000Y5950000D01*
X25550000Y3500000D02*
X25050000Y3500000D01*
X25550000Y1050000D02*
X25550000Y5950000D01*
X21140000Y1390000D02*
X21140000Y140000D01*
X21340000Y2200000D02*
X21340000Y1900000D01*
X25050000Y3600000D02*
X25550000Y3600000D01*
X21140000Y140000D02*
X22390000Y140000D01*
X22050000Y1050000D02*
X25550000Y1050000D01*
X22050000Y3000000D02*
X22050000Y1050000D01*
X25550000Y5950000D02*
X22050000Y5950000D01*
X21240000Y1900000D02*
X21440000Y1900000D01*
X25550000Y3400000D02*
X25050000Y3400000D01*
X22750000Y440000D02*
X22750000Y1050000D01*
X25050000Y3400000D02*
X25050000Y3600000D01*
X26160000Y6560000D02*
X21440000Y6560000D01*
X21440000Y3000000D02*
X22050000Y3000000D01*
X21240000Y2200000D02*
X21240000Y1900000D01*
X22050000Y4000000D02*
X21440000Y4000000D01*
X24050000Y440000D02*
X24050000Y1050000D01*
X21440000Y2200000D02*
X21240000Y2200000D01*
X24050000Y6560000D02*
X24050000Y5950000D01*
X29562779Y22440000D02*
X29237221Y22440000D01*
X29562779Y23460000D02*
X29237221Y23460000D01*
X26437221Y20090000D02*
X26762779Y20090000D01*
X26437221Y21110000D02*
X26762779Y21110000D01*
X29412779Y10410000D02*
X29087221Y10410000D01*
X29412779Y9390000D02*
X29087221Y9390000D01*
X33140000Y21402064D02*
X33140000Y20197936D01*
X34960000Y21402064D02*
X34960000Y20197936D01*
X34960000Y11397936D02*
X34960000Y12602064D01*
X33140000Y11397936D02*
X33140000Y12602064D01*
X13150000Y3400000D02*
X12650000Y3400000D01*
X11650000Y8560000D02*
X11650000Y7950000D01*
X9040000Y440000D02*
X13760000Y440000D01*
X10350000Y440000D02*
X10350000Y1050000D01*
X12650000Y5600000D02*
X13150000Y5600000D01*
X9650000Y3000000D02*
X9650000Y1050000D01*
X9040000Y3000000D02*
X9650000Y3000000D01*
X8740000Y1390000D02*
X8740000Y140000D01*
X13760000Y440000D02*
X13760000Y8560000D01*
X13150000Y5500000D02*
X12650000Y5500000D01*
X8840000Y2200000D02*
X8840000Y1900000D01*
X9650000Y7950000D02*
X9650000Y6000000D01*
X11650000Y440000D02*
X11650000Y1050000D01*
X12650000Y3400000D02*
X12650000Y3600000D01*
X13150000Y1050000D02*
X13150000Y7950000D01*
X8940000Y2200000D02*
X8940000Y1900000D01*
X12650000Y5400000D02*
X12650000Y5600000D01*
X10350000Y8560000D02*
X10350000Y7950000D01*
X9040000Y8560000D02*
X9040000Y440000D01*
X12650000Y3600000D02*
X13150000Y3600000D01*
X9040000Y2200000D02*
X8840000Y2200000D01*
X13150000Y7950000D02*
X9650000Y7950000D01*
X13150000Y3500000D02*
X12650000Y3500000D01*
X13150000Y5400000D02*
X12650000Y5400000D01*
X8840000Y1900000D02*
X9040000Y1900000D01*
X8740000Y140000D02*
X9990000Y140000D01*
X9650000Y6000000D02*
X9040000Y6000000D01*
X9650000Y1050000D02*
X13150000Y1050000D01*
X13760000Y8560000D02*
X9040000Y8560000D01*
X14600000Y36087500D02*
X14600000Y36537500D01*
X9000000Y36637500D02*
X9450000Y36637500D01*
X16800000Y41037500D02*
X16800000Y40787500D01*
X14600000Y36087500D02*
X14150000Y36087500D01*
X16800000Y36637500D02*
X16350000Y36637500D01*
X9000000Y38487500D02*
X9000000Y36637500D01*
X9000000Y41037500D02*
X9000000Y40787500D01*
X16800000Y38487500D02*
X16800000Y36637500D01*
X5718500Y26024000D02*
X5718500Y24694000D01*
X3118500Y27294000D02*
X3118500Y24694000D01*
X3118500Y24694000D02*
X518500Y24694000D01*
X518500Y24694000D02*
X518500Y32434000D01*
X5718500Y24694000D02*
X4388500Y24694000D01*
X5718500Y27294000D02*
X3118500Y27294000D01*
X5718500Y32434000D02*
X518500Y32434000D01*
X5718500Y27294000D02*
X5718500Y32434000D01*
D16*
X16350000Y6810000D02*
G75*
G03*
X16350000Y6810000I-50000J0D01*
G01*
D15*
X14940000Y1390000D02*
X14940000Y140000D01*
X19350000Y5950000D02*
X15850000Y5950000D01*
X16550000Y440000D02*
X16550000Y1050000D01*
X16550000Y6560000D02*
X16550000Y5950000D01*
X15850000Y1050000D02*
X19350000Y1050000D01*
X15240000Y440000D02*
X19960000Y440000D01*
X15140000Y2200000D02*
X15140000Y1900000D01*
X15850000Y3000000D02*
X15850000Y1050000D01*
X15240000Y3000000D02*
X15850000Y3000000D01*
X18850000Y3600000D02*
X19350000Y3600000D01*
X15240000Y6560000D02*
X15240000Y440000D01*
X15850000Y4000000D02*
X15240000Y4000000D01*
X17850000Y440000D02*
X17850000Y1050000D01*
X19350000Y3500000D02*
X18850000Y3500000D01*
X19960000Y6560000D02*
X15240000Y6560000D01*
X18850000Y3400000D02*
X18850000Y3600000D01*
X17850000Y6560000D02*
X17850000Y5950000D01*
X15040000Y1900000D02*
X15240000Y1900000D01*
X15850000Y5950000D02*
X15850000Y4000000D01*
X19350000Y3400000D02*
X18850000Y3400000D01*
X14940000Y140000D02*
X16190000Y140000D01*
X15040000Y2200000D02*
X15040000Y1900000D01*
X15240000Y2200000D02*
X15040000Y2200000D01*
X19350000Y1050000D02*
X19350000Y5950000D01*
X19960000Y440000D02*
X19960000Y6560000D01*
D17*
X30322140Y13746300D02*
X31016700Y13746300D01*
X25073100Y17065699D02*
X25073100Y16684699D01*
X29197301Y13060500D02*
X29197301Y13314500D01*
X29578301Y13314500D02*
X29578301Y13060500D01*
X31016700Y18309540D02*
X31016700Y19004100D01*
X25758900Y13746300D02*
X26453460Y13746300D01*
X25327100Y16684699D02*
X25327100Y17065699D01*
X25758900Y19004100D02*
X25758900Y18309540D01*
X25758900Y14440860D02*
X25758900Y13746300D01*
X25073100Y16684699D02*
X25327100Y16684699D01*
X29578301Y13060500D02*
X29197301Y13060500D01*
X31016700Y19004100D02*
X30322140Y19004100D01*
X29197301Y13314500D02*
X29578301Y13314500D01*
X25327100Y17065699D02*
X25073100Y17065699D01*
X31016700Y13746300D02*
X31016700Y14440860D01*
X26453460Y19004100D02*
X25758900Y19004100D01*
D15*
X25600000Y11310000D02*
X27100000Y11310000D01*
X24100000Y8090000D02*
X27100000Y8090000D01*
X23590000Y27682064D02*
X23590000Y26477936D01*
X26310000Y27682064D02*
X26310000Y26477936D01*
X19910000Y31941422D02*
X19910000Y32458578D01*
X18490000Y31941422D02*
X18490000Y32458578D01*
X27570000Y25510000D02*
X29370000Y25510000D01*
X29370000Y28730000D02*
X26920000Y28730000D01*
X17910000Y31941422D02*
X17910000Y32458578D01*
X16490000Y31941422D02*
X16490000Y32458578D01*
X20490000Y31941422D02*
X20490000Y32458578D01*
X21910000Y31941422D02*
X21910000Y32458578D01*
X25012779Y24560000D02*
X24687221Y24560000D01*
X25012779Y23540000D02*
X24687221Y23540000D01*
X23537221Y30640000D02*
X23862779Y30640000D01*
X23537221Y31660000D02*
X23862779Y31660000D01*
X22650000Y30250000D02*
X22650000Y29100000D01*
X22650000Y24850000D02*
X22650000Y26000000D01*
X17050000Y30250000D02*
X17050000Y29100000D01*
X22650000Y24850000D02*
X17050000Y24850000D01*
X22650000Y30250000D02*
X17050000Y30250000D01*
X17050000Y24850000D02*
X17050000Y26000000D01*
X27140000Y380000D02*
X27140000Y7120000D01*
X32920000Y1500000D02*
X27140000Y1500000D01*
X32920000Y6600000D02*
X27140000Y6600000D01*
X32920000Y7120000D02*
X27140000Y7120000D01*
X32920000Y380000D02*
X27140000Y380000D01*
X33160000Y7360000D02*
X32760000Y7360000D01*
X32920000Y380000D02*
X32920000Y7120000D01*
X33160000Y6720000D02*
X33160000Y7360000D01*
X39760000Y30095563D02*
X39760000Y24340000D01*
X38591250Y31793750D02*
X37803750Y31793750D01*
X38695563Y31160000D02*
X37410000Y31160000D01*
X39760000Y24340000D02*
X37410000Y24340000D01*
X34004437Y31160000D02*
X35290000Y31160000D01*
X32940000Y30095563D02*
X32940000Y24340000D01*
X34004437Y31160000D02*
X32940000Y30095563D01*
X38197500Y32187500D02*
X38197500Y31400000D01*
X38695563Y31160000D02*
X39760000Y30095563D01*
X32940000Y24340000D02*
X35290000Y24340000D01*
D16*
X6750000Y25890000D02*
G75*
G03*
X6750000Y25890000I-50000J0D01*
G01*
D15*
X35578500Y22584000D02*
X35578500Y9964000D01*
X37838500Y21824000D02*
X40788500Y21824000D01*
X35588500Y20774000D02*
X36338500Y20774000D01*
X35588500Y19274000D02*
X35588500Y13274000D01*
X41548500Y9964000D02*
X41548500Y22584000D01*
X40788500Y21824000D02*
X40788500Y16274000D01*
X37838500Y10724000D02*
X40788500Y10724000D01*
X35588500Y9974000D02*
X36338500Y9974000D01*
X36338500Y9974000D02*
X36338500Y11774000D01*
X36338500Y19274000D02*
X35588500Y19274000D01*
X36338500Y13274000D02*
X36338500Y19274000D01*
X35288500Y9674000D02*
X36538500Y9674000D01*
X36338500Y20774000D02*
X36338500Y22574000D01*
X35588500Y13274000D02*
X36338500Y13274000D01*
X35588500Y11774000D02*
X35588500Y9974000D01*
X40788500Y10724000D02*
X40788500Y16274000D01*
X37838500Y9974000D02*
X37838500Y10724000D01*
X36338500Y22574000D02*
X35588500Y22574000D01*
X35588500Y22574000D02*
X35588500Y20774000D01*
X37838500Y22574000D02*
X37838500Y21824000D01*
X35288500Y10924000D02*
X35288500Y9674000D01*
X41548500Y22584000D02*
X35578500Y22584000D01*
X36338500Y11774000D02*
X35588500Y11774000D01*
X35578500Y9964000D02*
X41548500Y9964000D01*
X22815000Y32350000D02*
X22815000Y41480000D01*
X23815000Y42480000D02*
X32185000Y42480000D01*
X32185000Y42480000D02*
X33185000Y41480000D01*
X33185000Y32350000D02*
X22815000Y32350000D01*
X22815000Y41480000D02*
X23815000Y42480000D01*
X33185000Y41480000D02*
X33185000Y32350000D01*
X23790000Y19737221D02*
X23790000Y20062779D01*
X24810000Y19737221D02*
X24810000Y20062779D01*
X41435000Y31385000D02*
X39965000Y31385000D01*
X41435000Y29100000D02*
X41435000Y31385000D01*
X39965000Y31385000D02*
X39965000Y29100000D01*
X11900000Y28540000D02*
X9950000Y28540000D01*
X11900000Y28540000D02*
X13850000Y28540000D01*
X11900000Y33660000D02*
X13850000Y33660000D01*
X11900000Y33660000D02*
X8450000Y33660000D01*
X21780000Y40460000D02*
X21780000Y39000000D01*
X18620000Y40460000D02*
X19550000Y40460000D01*
X21780000Y40460000D02*
X20850000Y40460000D01*
X18620000Y40460000D02*
X18620000Y38300000D01*
X8860000Y14360000D02*
X9910000Y14360000D01*
X7740000Y9140000D02*
X6690000Y9140000D01*
X8860000Y9140000D02*
X9910000Y9140000D01*
X10850000Y26435000D02*
X8565000Y26435000D01*
X8565000Y26435000D02*
X8565000Y24965000D01*
X8565000Y24965000D02*
X10850000Y24965000D01*
X14010000Y25020000D02*
X14010000Y25950000D01*
X14010000Y28180000D02*
X11850000Y28180000D01*
X14010000Y28180000D02*
X14010000Y27250000D01*
X14010000Y25020000D02*
X12550000Y25020000D01*
X16970000Y7890000D02*
X16970000Y9350000D01*
X20130000Y7890000D02*
X19200000Y7890000D01*
X20130000Y7890000D02*
X20130000Y10050000D01*
X16970000Y7890000D02*
X17900000Y7890000D01*
X15887221Y34290000D02*
X16212779Y34290000D01*
X15887221Y35310000D02*
X16212779Y35310000D01*
X19900000Y34340000D02*
X21960000Y34340000D01*
X21960000Y34340000D02*
X21960000Y36460000D01*
X17840000Y34340000D02*
X17840000Y35400000D01*
X19900000Y34340000D02*
X19900000Y36460000D01*
X19900000Y36460000D02*
X21960000Y36460000D01*
X18900000Y34340000D02*
X17840000Y34340000D01*
X5540000Y11857836D02*
X5540000Y11642164D01*
X6260000Y11857836D02*
X6260000Y11642164D01*
X5540000Y10007836D02*
X5540000Y9792164D01*
X6260000Y10007836D02*
X6260000Y9792164D01*
M02*
