M48
; DRILL file {KiCad (6.0.5)} date Mon Sep 26 13:26:39 2022
; FORMAT={-:-/ absolute / inch / decimal}
; #@! TF.CreationDate,2022-09-26T13:26:39+02:00
; #@! TF.GenerationSoftware,Kicad,Pcbnew,(6.0.5)
; #@! TF.FileFunction,Plated,1,4,PTH
FMAT,2
INCH
; #@! TA.AperFunction,Plated,PTH,ViaDrill
T1C0.0118
; #@! TA.AperFunction,Plated,PTH,ViaDrill
T2C0.0157
; #@! TA.AperFunction,Plated,PTH,ViaDrill
T3C0.0197
; #@! TA.AperFunction,Plated,PTH,ComponentDrill
T4C0.0197
; #@! TA.AperFunction,Plated,PTH,ComponentDrill
T5C0.0236
; #@! TA.AperFunction,Plated,PTH,ComponentDrill
T6C0.0295
; #@! TA.AperFunction,Plated,PTH,ComponentDrill
T7C0.0315
; #@! TA.AperFunction,Plated,PTH,ComponentDrill
T8C0.0335
; #@! TA.AperFunction,Plated,PTH,ComponentDrill
T9C0.0374
; #@! TA.AperFunction,Plated,PTH,ComponentDrill
T10C0.0394
; #@! TA.AperFunction,Plated,PTH,ComponentDrill
T11C0.0402
; #@! TA.AperFunction,Plated,PTH,ComponentDrill
T12C0.0433
; #@! TA.AperFunction,Plated,PTH,ComponentDrill
T13C0.1260
%
G90
G05
T1
X0.0394Y0.2165
X0.0433Y1.437
X0.0433Y0.8346
X0.1161Y0.8543
X0.1453Y0.9486
X0.1614Y0.3681
X0.185Y0.5157
X0.185Y0.4803
X0.189Y0.6417
X0.1969Y0.8071
X0.2047Y0.4094
X0.2165Y1.6063
X0.2165Y0.0394
X0.2228Y0.9854
X0.2283Y0.9134
X0.2323Y0.8675
X0.3051Y1.6063
X0.3087Y0.3519
X0.3091Y0.5925
X0.3268Y0.4469
X0.3268Y0.4182
X0.3268Y1.3346
X0.3268Y0.5059
X0.3306Y1.0392
X0.3701Y0.3209
X0.389Y0.8625
X0.3976Y1.0984
X0.3996Y0.5413
X0.3996Y0.5098
X0.4016Y0.4488
X0.4212Y0.4783
X0.4291Y1.1969
X0.4291Y0.8406
X0.4291Y0.5551
X0.4296Y0.7389
X0.4576Y1.1658
X0.4606Y1.0472
X0.4705Y0.4843
X0.4724Y0.3504
X0.4882Y1.1732
X0.4921Y1.0472
X0.502Y0.9016
X0.5079Y1.2992
X0.5116Y1.5
X0.5394Y0.1024
X0.5433Y0.4783
X0.5433Y0.313
X0.547Y0.8626
X0.5512Y0.0394
X0.5569Y0.811
X0.5634Y0.8392
X0.5689Y0.7264
X0.5749Y0.7842
X0.5777Y0.5236
X0.5886Y0.2421
X0.5903Y0.8294
X0.5906Y1.1024
X0.5945Y0.6437
X0.6036Y0.804
X0.6097Y0.7761
X0.6122Y0.8504
X0.6299Y1.0827
X0.6308Y0.7529
X0.6328Y0.5472
X0.6548Y0.5194
X0.6614Y0.5472
X0.6673Y1.1772
X0.6772Y1.4627
X0.689Y1.0079
X0.6969Y1.6181
X0.6969Y1.5748
X0.7045Y0.7223
X0.7047Y0.685
X0.7165Y1.3051
X0.7185Y0.4154
X0.7264Y0.4783
X0.7276Y0.8761
X0.7283Y0.8425
X0.7283Y0.7382
X0.7283Y0.3701
X0.7303Y0.3937
X0.7331Y0.681
X0.7382Y1.1772
X0.752Y1.4409
X0.7539Y0.4744
X0.7598Y0.4469
X0.7697Y0.5886
X0.7756Y0.8976
X0.7756Y0.5276
X0.777Y0.6215
X0.7835Y1.0217
X0.7953Y1.5276
X0.7953Y1.3051
X0.8051Y1.1752
X0.8071Y0.1906
X0.8071Y0.0984
X0.813Y0.9016
X0.8135Y0.5536
X0.8465Y0.5512
X0.872Y0.998
X0.876Y1.3051
X0.8858Y0.5748
X0.8917Y0.8327
X0.8937Y1.5236
X0.8957Y0.4429
X0.8957Y0.4075
X0.8957Y0.3722
X0.8976Y1.6181
X0.9037Y0.6614
X0.9075Y0.9193
X0.9173Y1.3228
X0.9193Y0.4429
X0.9193Y0.4075
X0.9193Y0.372
X0.9234Y0.7264
X0.9409Y1.5433
X0.9429Y1.4035
X0.9429Y0.4429
X0.9488Y0.878
X0.9646Y1.2717
X0.9803Y0.7874
X0.9835Y0.9726
X1.0197Y0.9764
X1.0276Y0.7323
X1.0276Y0.5551
X1.0472Y0.997
X1.0472Y0.9488
X1.0591Y0.7047
X1.0591Y0.6654
X1.0591Y0.626
X1.0591Y0.5866
X1.0984Y0.7047
X1.0984Y0.6654
X1.0984Y0.626
X1.0984Y0.5866
X1.1063Y0.4222
X1.1083Y0.3563
X1.1109Y0.9377
X1.1161Y0.8701
X1.1378Y0.937
X1.1378Y0.7047
X1.1378Y0.6654
X1.1378Y0.626
X1.1378Y0.5866
X1.1378Y0.3573
X1.1535Y1.1437
X1.1575Y1.6142
X1.1575Y1.3898
X1.1614Y1.2598
X1.1772Y0.7047
X1.1772Y0.6654
X1.1772Y0.626
X1.1772Y0.5866
X1.2402Y1.2598
X1.2402Y1.1988
X1.3031Y1.1063
X1.3189Y1.2598
X1.3189Y1.1988
X1.3189Y1.1417
X1.3839Y1.0295
X1.3839Y0.9862
X1.3839Y0.939
X1.3858Y0.4252
X1.3858Y0.3976
X1.3898Y0.8937
X1.3898Y0.8661
X1.4173Y0.8937
X1.4173Y0.8661
X1.4173Y0.4252
X1.4173Y0.3976
X1.4173Y0.0394
X1.437Y1.6142
X1.4783Y1.0295
X1.4783Y0.9862
X1.4783Y0.939
X1.5354Y1.2598
X1.5354Y1.1988
X1.5354Y1.1417
X1.6142Y1.437
X1.6142Y0.2165
T2
X0.1949Y0.5531
T3
X1.1516Y0.8406
X1.1516Y0.8012
X1.1516Y0.4823
X1.1516Y0.4429
X1.1909Y0.8406
X1.1909Y0.8012
X1.1909Y0.4823
X1.1909Y0.4429
X1.2343Y0.9272
X1.2343Y0.8878
X1.2343Y0.3937
X1.2343Y0.3543
X1.2736Y0.9272
X1.2736Y0.8878
X1.2736Y0.3937
X1.2736Y0.3543
T4
X0.122Y1.437
X0.122Y0.2165
X0.1497Y1.5038
X0.1497Y1.3702
X0.1497Y0.2833
X0.1497Y0.1497
X0.2165Y1.5315
X0.2165Y1.3425
X0.2165Y0.311
X0.2165Y0.122
X0.2833Y1.5038
X0.2833Y1.3702
X0.2833Y0.2833
X0.2833Y0.1497
X0.311Y1.437
X0.311Y0.2165
X1.3425Y1.437
X1.3425Y0.2165
X1.3702Y1.5038
X1.3702Y1.3702
X1.3702Y0.2833
X1.3702Y0.1497
X1.437Y1.5315
X1.437Y1.3425
X1.437Y0.311
X1.437Y0.122
X1.5038Y1.5038
X1.5038Y1.3702
X1.5038Y0.2833
X1.5038Y0.1497
X1.5315Y1.437
X1.5315Y0.2165
T6
X0.0827Y0.7677
X0.0827Y0.689
X0.0827Y0.6102
X0.0827Y0.5315
X0.0827Y0.4528
X0.4272Y0.2559
X0.4272Y0.1772
X0.4272Y0.0984
X0.6713Y0.1772
X0.6713Y0.0984
X0.9154Y0.1772
X0.9154Y0.0984
T7
X0.7441Y1.3937
X0.8228Y1.3937
T8
X0.4094Y1.4542
X0.6063Y1.4542
T9
X1.4976Y0.7883
X1.4976Y0.6899
X1.4976Y0.5915
X1.4976Y0.4931
T10
X0.0728Y1.2246
X0.0728Y1.1246
X0.0728Y1.0246
X0.1728Y1.2246
X0.1728Y1.1246
X0.1728Y1.0246
T11
X1.0433Y1.3169
X1.0433Y1.1988
X1.1614Y1.3169
X1.1614Y1.1988
T12
X1.1323Y0.1476
X1.2323Y0.1476
T13
X0.2165Y1.437
X0.2165Y0.2165
X1.437Y1.437
X1.437Y0.2165
T5
G00X0.3701Y1.5468
M15
G01X0.3701Y1.5743
M16
G05
G00X0.6457Y1.5743
M15
G01X0.6457Y1.5468
M16
G05
T0
M30
